<svg width="21" height="20" viewBox="0 0 21 20" fill="none" xmlns="http://www.w3.org/2000/svg">
<path d="M4.99218 0.335938C4.5996 0.335938 4.21288 0.476562 3.89062 0.734375L3.84374 0.757812L3.8203 0.78125L1.47655 3.19531L1.49999 3.21875C0.776359 3.88672 0.553703 4.88574 0.867179 5.75C0.870109 5.75586 0.86425 5.76758 0.867179 5.77344C1.50292 7.59277 3.1289 11.1055 6.30468 14.2812C9.49218 17.4687 13.0518 19.0303 14.8125 19.7187H14.8359C15.7471 20.0234 16.7344 19.8066 17.4375 19.2031L19.8047 16.8359C20.4258 16.2148 20.4258 15.1367 19.8047 14.5156L16.7578 11.4687L16.7344 11.4219C16.1133 10.8008 15.0117 10.8008 14.3906 11.4219L12.8906 12.9219C12.3486 12.6611 11.0566 11.9932 9.8203 10.8125C8.59276 9.64062 7.96581 8.29297 7.73437 7.76562L9.23437 6.26562C9.86425 5.63574 9.87597 4.58691 9.21093 3.96875L9.23437 3.94531L9.16405 3.875L6.16405 0.78125L6.14062 0.757812L6.09374 0.734375C5.77148 0.476562 5.38476 0.335938 4.99218 0.335938ZM4.99218 1.83594C5.04784 1.83594 5.10351 1.8623 5.15624 1.90625L8.15624 4.97656L8.22655 5.04687C8.22069 5.04102 8.2705 5.12012 8.17968 5.21094L6.30468 7.08594L5.95312 7.41406L6.11718 7.88281C6.11718 7.88281 6.97851 10.1885 8.78905 11.9141L8.95312 12.0547C10.6963 13.6455 12.75 14.5156 12.75 14.5156L13.2187 14.7266L15.4453 12.5C15.5742 12.3711 15.5508 12.3711 15.6797 12.5L18.75 15.5703C18.8789 15.6992 18.8789 15.6523 18.75 15.7812L16.4531 18.0781C16.1074 18.374 15.7412 18.4355 15.3047 18.2891C13.6055 17.6211 10.3037 16.1709 7.35937 13.2266C4.39159 10.2588 2.84179 6.89258 2.27343 5.25781C2.15917 4.95312 2.2412 4.50195 2.5078 4.27344L2.55468 4.22656L4.82812 1.90625C4.88085 1.8623 4.93652 1.83594 4.99218 1.83594Z" fill="#313131"/>
</svg>
