<svg width="67" height="64" viewBox="0 0 67 64" fill="none" xmlns="http://www.w3.org/2000/svg">
<path d="M10.1667 0.0253059H56.8333C59.4855 0.0253059 62.029 1.07887 63.9044 2.95424C65.7798 4.8296 66.8333 7.37314 66.8333 10.0253V36.692C66.8333 39.3441 65.7798 41.8877 63.9044 43.763C62.029 45.6384 59.4855 46.692 56.8333 46.692H33.64L12.16 62.7186C11.6641 63.0887 11.0749 63.3133 10.4585 63.3675C9.84216 63.4217 9.22286 63.3033 8.66998 63.0254C8.1171 62.7476 7.65246 62.3214 7.32808 61.7945C7.00371 61.2675 6.83239 60.6607 6.83332 60.042V46.6886C5.06521 46.6886 3.36952 45.9863 2.11928 44.736C0.869036 43.4858 0.166656 41.7901 0.166656 40.022V10.022C0.166656 7.36981 1.22022 4.82627 3.09559 2.9509C4.97095 1.07554 7.51449 0.0219727 10.1667 0.0219727V0.0253059Z" fill="white"/>
</svg>
