<svg width="100" height="101" viewBox="0 0 100 101" fill="none" xmlns="http://www.w3.org/2000/svg">
<path d="M82.1 76.0936L82.2654 76.0214L82.249 75.8417C81.2078 64.4727 73.8205 54.8627 63.5252 50.3019C63.5983 49.4478 63.6355 48.584 63.6355 47.7119C63.6355 37.2852 58.3113 28.0581 50.1423 22.4057L50 22.3073L49.8578 22.4057C41.6888 28.0581 36.3645 37.2852 36.3645 47.7119C36.3645 48.584 36.4018 49.4478 36.4748 50.3018C26.1795 54.8627 18.7922 64.4727 17.751 75.8417L17.7346 76.0214L17.9 76.0936C21.9736 77.8715 26.4972 78.8613 31.2603 78.8613C38.2429 78.8613 44.7108 76.7343 50.0002 73.1158C55.2896 76.7342 61.7572 78.8613 68.7397 78.8613C73.5028 78.8613 78.0264 77.8715 82.1 76.0936ZM50 70.8964C43.7766 66.239 39.4801 59.3183 38.4447 51.4242C42.0087 50.0222 45.9102 49.2491 50 49.2491C50.3992 49.2491 50.7965 49.2565 51.1919 49.2711C54.8481 49.406 58.3391 50.159 61.5553 51.4242C61.4892 51.9284 61.4098 52.4286 61.3174 52.9244C61.1459 53.8448 60.9299 54.7503 60.6714 55.6388C58.8886 61.7674 55.0883 67.0885 50 70.8964ZM50 47.4617C45.8609 47.4617 41.9026 48.2091 38.2633 49.5717C38.2234 48.9567 38.2031 48.3366 38.2031 47.7119C38.2031 38.2909 42.8164 29.9034 50 24.5271C57.1837 29.9034 61.797 38.2909 61.797 47.7119C61.797 48.3366 61.7767 48.9567 61.7367 49.5717C58.0974 48.2091 54.1391 47.4617 50 47.4617ZM68.7397 77.0738C62.3653 77.0738 56.448 75.1959 51.5526 71.9849C57.7809 67.1588 62.1152 60.1569 63.3056 52.1756C72.4056 56.4182 78.9803 64.8741 80.2951 74.8992C76.7326 76.3006 72.8319 77.0738 68.7397 77.0738ZM19.7049 74.8992C21.0197 64.8741 27.5945 56.4181 36.6945 52.1756C37.8849 60.1568 42.2192 67.1587 48.4474 71.9849C43.552 75.1959 37.6348 77.0738 31.2603 77.0738C27.1681 77.0738 23.2674 76.3006 19.7049 74.8992Z" fill="url(#paint0_linear_669_337)" stroke="url(#paint1_linear_669_337)" stroke-width="0.5"/>
<defs>
<linearGradient id="paint0_linear_669_337" x1="19.8073" y1="50.6113" x2="78.1922" y2="50.6113" gradientUnits="userSpaceOnUse">
<stop stop-color="#92EBFF"/>
<stop offset="0.513542" stop-color="#8B98FF"/>
<stop offset="1" stop-color="#67FE9B"/>
</linearGradient>
<linearGradient id="paint1_linear_669_337" x1="19.8073" y1="50.6113" x2="78.1922" y2="50.6113" gradientUnits="userSpaceOnUse">
<stop stop-color="#92EBFF"/>
<stop offset="0.513542" stop-color="#8B98FF"/>
<stop offset="1" stop-color="#67FE9B"/>
</linearGradient>
</defs>
</svg>
