<svg width="33" height="33" viewBox="0 0 33 33" fill="none" xmlns="http://www.w3.org/2000/svg">
<path d="M9.5 7.4751C6.19922 7.4751 3.5 10.1743 3.5 13.4751C3.5 15.4595 4.47656 17.2251 5.96875 18.3188C3.33203 19.6274 1.5 22.3384 1.5 25.4751H3.5C3.5 22.1509 6.17578 19.4751 9.5 19.4751C12.8242 19.4751 15.5 22.1509 15.5 25.4751H17.5C17.5 22.1509 20.1758 19.4751 23.5 19.4751C26.8242 19.4751 29.5 22.1509 29.5 25.4751H31.5C31.5 22.3384 29.668 19.6274 27.0312 18.3188C28.5234 17.2251 29.5 15.4595 29.5 13.4751C29.5 10.1743 26.8008 7.4751 23.5 7.4751C20.1992 7.4751 17.5 10.1743 17.5 13.4751C17.5 15.4595 18.4766 17.2251 19.9688 18.3188C18.5117 19.0415 17.2891 20.1821 16.5 21.6001C15.7109 20.1821 14.4883 19.0415 13.0312 18.3188C14.5234 17.2251 15.5 15.4595 15.5 13.4751C15.5 10.1743 12.8008 7.4751 9.5 7.4751ZM9.5 9.4751C11.7227 9.4751 13.5 11.2524 13.5 13.4751C13.5 15.6978 11.7227 17.4751 9.5 17.4751C7.27734 17.4751 5.5 15.6978 5.5 13.4751C5.5 11.2524 7.27734 9.4751 9.5 9.4751ZM23.5 9.4751C25.7227 9.4751 27.5 11.2524 27.5 13.4751C27.5 15.6978 25.7227 17.4751 23.5 17.4751C21.2773 17.4751 19.5 15.6978 19.5 13.4751C19.5 11.2524 21.2773 9.4751 23.5 9.4751Z" fill="white"/>
</svg>
