<svg width="12" height="21" viewBox="0 0 12 21" fill="none" xmlns="http://www.w3.org/2000/svg">
<path d="M2 0.5C0.894531 0.5 0 1.39453 0 2.5C0 3.60547 0.894531 4.5 2 4.5C3.10547 4.5 4 3.60547 4 2.5C4 1.39453 3.10547 0.5 2 0.5ZM10 0.5C8.89453 0.5 8 1.39453 8 2.5C8 3.60547 8.89453 4.5 10 4.5C11.1055 4.5 12 3.60547 12 2.5C12 1.39453 11.1055 0.5 10 0.5ZM2 8.5C0.894531 8.5 0 9.39453 0 10.5C0 11.6055 0.894531 12.5 2 12.5C3.10547 12.5 4 11.6055 4 10.5C4 9.39453 3.10547 8.5 2 8.5ZM10 8.5C8.89453 8.5 8 9.39453 8 10.5C8 11.6055 8.89453 12.5 10 12.5C11.1055 12.5 12 11.6055 12 10.5C12 9.39453 11.1055 8.5 10 8.5ZM2 16.5C0.894531 16.5 0 17.3945 0 18.5C0 19.6055 0.894531 20.5 2 20.5C3.10547 20.5 4 19.6055 4 18.5C4 17.3945 3.10547 16.5 2 16.5ZM10 16.5C8.89453 16.5 8 17.3945 8 18.5C8 19.6055 8.89453 20.5 10 20.5C11.1055 20.5 12 19.6055 12 18.5C12 17.3945 11.1055 16.5 10 16.5Z" fill="#313131"/>
</svg>
