<svg width="12" height="21" viewBox="0 0 12 21" fill="none" xmlns="http://www.w3.org/2000/svg">
<path d="M2 0.71875C0.894531 0.71875 0 1.61328 0 2.71875C0 3.82422 0.894531 4.71875 2 4.71875C3.10547 4.71875 4 3.82422 4 2.71875C4 1.61328 3.10547 0.71875 2 0.71875ZM10 0.71875C8.89453 0.71875 8 1.61328 8 2.71875C8 3.82422 8.89453 4.71875 10 4.71875C11.1055 4.71875 12 3.82422 12 2.71875C12 1.61328 11.1055 0.71875 10 0.71875ZM2 8.71875C0.894531 8.71875 0 9.61328 0 10.7188C0 11.8242 0.894531 12.7188 2 12.7188C3.10547 12.7188 4 11.8242 4 10.7188C4 9.61328 3.10547 8.71875 2 8.71875ZM10 8.71875C8.89453 8.71875 8 9.61328 8 10.7188C8 11.8242 8.89453 12.7188 10 12.7188C11.1055 12.7188 12 11.8242 12 10.7188C12 9.61328 11.1055 8.71875 10 8.71875ZM2 16.7188C0.894531 16.7188 0 17.6133 0 18.7188C0 19.8242 0.894531 20.7188 2 20.7188C3.10547 20.7188 4 19.8242 4 18.7188C4 17.6133 3.10547 16.7188 2 16.7188ZM10 16.7188C8.89453 16.7188 8 17.6133 8 18.7188C8 19.8242 8.89453 20.7188 10 20.7188C11.1055 20.7188 12 19.8242 12 18.7188C12 17.6133 11.1055 16.7188 10 16.7188Z" fill="white"/>
</svg>
