<svg width="64" height="64" viewBox="0 0 64 64" fill="none" xmlns="http://www.w3.org/2000/svg">
<path d="M12 6V58H52V19.1875L51.4375 18.5625L39.4375 6.5625L38.8125 6H12ZM16 10H36V22H48V54H16V10ZM40 12.875L45.125 18H40V12.875Z" fill="#313131"/>
<path d="M32 23C28.7539 23 26 25.291 26 28.25V30.5H30.5V28.25C30.5 28.1387 30.5674 27.9775 30.8281 27.8047C31.0889 27.6318 31.5137 27.5 32 27.5C32.4893 27.5 32.9141 27.6318 33.1719 27.8047C33.4297 27.9775 33.5 28.127 33.5 28.25C33.5 28.6836 33.3594 28.9854 33.0781 29.3281C32.7969 29.6709 32.3604 30.0254 31.8828 30.4297C30.9248 31.2412 29.75 32.3721 29.75 34.25V35H34.25V34.25C34.25 33.9951 34.3437 33.8164 34.625 33.5234C34.9062 33.2305 35.3721 32.8848 35.8672 32.4688C36.8574 31.6367 38 30.3623 38 28.25C38 25.3174 35.252 23 32 23ZM32 24.5C34.5459 24.5 36.5 26.2754 36.5 28.25C36.5 29.8584 35.7676 30.5762 34.8828 31.3203C34.4404 31.6924 33.9687 32.0557 33.5469 32.4922C33.2861 32.7617 33.084 33.1133 32.9375 33.5H31.4844C31.7187 32.7412 32.1758 32.1641 32.8672 31.5781C33.3271 31.1914 33.8281 30.7871 34.25 30.2656C34.6719 29.7441 35 29.0615 35 28.25C35 27.5293 34.5723 26.9316 34.0156 26.5625C33.459 26.1934 32.7529 26 32 26C31.2441 26 30.5381 26.1934 29.9844 26.5625C29.4307 26.9316 29 27.5322 29 28.25V29H27.5V28.25C27.5 26.2373 29.4482 24.5 32 24.5ZM29.75 36.5V41H34.25V36.5H29.75ZM31.25 38H32.75V39.5H31.25V38Z" fill="#313131"/>
<path d="M32 24.5C34.5459 24.5 36.5 26.2754 36.5 28.25C36.5 29.8584 35.7676 30.5762 34.8828 31.3203C34.4404 31.6924 33.9687 32.0557 33.5469 32.4922C33.2861 32.7617 33.084 33.1133 32.9375 33.5H31.4844C31.7187 32.7412 32.1758 32.1641 32.8672 31.5781C33.3271 31.1914 33.8281 30.7871 34.25 30.2656C34.6719 29.7441 35 29.0615 35 28.25C35 27.5293 34.5723 26.9316 34.0156 26.5625C33.459 26.1934 32.7529 26 32 26C31.2441 26 30.5381 26.1934 29.9844 26.5625C29.4307 26.9316 29 27.5322 29 28.25V29H27.5V28.25C27.5 26.2373 29.4482 24.5 32 24.5Z" fill="#313131"/>
<path d="M31.25 38H32.75V39.5H31.25V38Z" fill="#313131"/>
</svg>
