<svg width="33" height="33" viewBox="0 0 33 33" fill="none" xmlns="http://www.w3.org/2000/svg">
<path d="M10 5.4751C5.86328 5.4751 2.5 8.87744 2.5 12.9751C2.5 14.4048 3.14844 15.6431 3.75 16.5376C4.35156 17.4321 4.96875 18.0063 4.96875 18.0063L15.7812 28.8501L16.5 29.5688L17.2188 28.8501L28.0312 18.0063C28.0312 18.0063 30.5 15.8306 30.5 12.9751C30.5 8.87744 27.1367 5.4751 23 5.4751C19.5664 5.4751 17.3555 7.5415 16.5 8.4126C15.6445 7.5415 13.4336 5.4751 10 5.4751ZM10 7.4751C12.9883 7.4751 15.75 10.3813 15.75 10.3813L16.5 11.2251L17.25 10.3813C17.25 10.3813 20.0117 7.4751 23 7.4751C26.043 7.4751 28.5 9.97119 28.5 12.9751C28.5 14.5181 26.625 16.6001 26.625 16.6001L16.5 26.7251L6.375 16.6001C6.375 16.6001 5.89062 16.1353 5.40625 15.4126C4.92188 14.6899 4.5 13.7485 4.5 12.9751C4.5 9.97119 6.95703 7.4751 10 7.4751Z" fill="white"/>
</svg>
