<svg width="216" height="67" viewBox="0 0 216 67" fill="none" xmlns="http://www.w3.org/2000/svg">
<g clip-path="url(#clip0_6_148)">
<path d="M24.8906 24.9108C24.9215 24.8925 24.9539 24.8737 24.9843 24.854C26.2434 24.104 27.1776 23.0559 27.6234 21.8897C27.8601 21.2719 27.9436 20.6564 27.8751 20.1084C27.8372 19.7776 27.7334 19.4578 27.57 19.1676C27.3108 18.72 26.8898 18.3539 26.3564 18.0994C25.8229 17.8448 25.1751 17.7023 24.4654 17.7023C23.4745 17.7023 22.3612 17.9794 21.2559 18.6169C20.7957 18.8805 20.3667 19.195 19.9767 19.5544C18.4434 20.9737 17.9386 22.7953 18.4298 24.0483C18.4717 24.1556 18.5215 24.2596 18.5789 24.3595C19.4531 25.8801 22.2 26.4642 24.8906 24.9108Z" fill="#313131"/>
<path d="M23.1956 31.5295C24.7644 31.1912 26.2699 30.6069 27.6563 29.7985C28.2719 29.4442 28.863 29.0491 29.4258 28.6158C29.9709 28.1962 30.4861 27.739 30.9675 27.2475C31.165 27.046 31.355 26.8399 31.5375 26.6292C31.72 26.4186 31.895 26.2038 32.0625 25.9847C32.3469 25.613 32.6106 25.2258 32.8524 24.825C33.0897 24.4315 33.3039 24.0246 33.4941 23.6063C33.541 23.5088 33.5817 23.4103 33.6235 23.3119C33.6652 23.2135 33.705 23.1136 33.7435 23.0142C33.9226 22.5515 34.0679 22.0764 34.178 21.5925C34.283 21.1299 34.3513 20.6597 34.3824 20.1863C34.4341 19.4643 34.3854 18.7386 34.2375 18.03C34.096 17.3539 33.8489 16.7042 33.5053 16.1049C33.2256 15.6222 32.8849 15.1776 32.4914 14.7821C32.0845 14.3737 31.6317 14.014 31.1419 13.71C30.6266 13.3905 30.0792 13.126 29.5088 12.9206C28.9036 12.7025 28.2788 12.543 27.6431 12.4444C27.3503 12.3994 27.0549 12.3653 26.7567 12.3422C26.4586 12.3191 26.1585 12.3077 25.8563 12.308C24.6403 12.3132 23.4309 12.4854 22.2619 12.8199C21.0246 13.1724 19.8361 13.6777 18.7238 14.3241C17.7467 14.8869 16.8333 15.5535 15.9994 16.3125C15.2061 17.0325 14.4997 17.8429 13.8947 18.7271C13.6386 19.1026 13.4038 19.4923 13.1916 19.8942C12.9828 20.2892 12.7974 20.6962 12.6366 21.113C12.5585 21.3146 12.4874 21.5164 12.4233 21.7186C12.3591 21.9206 12.3024 22.1222 12.2517 22.3242L12.2335 22.4002C12.2274 22.4255 12.2217 22.4503 12.2161 22.4752C12.2105 22.5 12.2039 22.5258 12.1983 22.5511C12.1927 22.5764 12.1875 22.6008 12.1824 22.6256C12.1711 22.6758 12.1608 22.726 12.151 22.7761C12.1411 22.8263 12.1317 22.8769 12.1228 22.927C12.1153 22.9678 12.1083 23.0091 12.1017 23.0499C12.0952 23.0906 12.0881 23.1319 12.082 23.1727C12.0783 23.1956 12.075 23.2196 12.0717 23.2416L12.0619 23.3105C12.0572 23.3466 12.052 23.3822 12.0474 23.4178C12.0427 23.4535 12.0385 23.4891 12.0347 23.5252C12.03 23.5683 12.0253 23.6124 12.0206 23.656C12.016 23.6996 12.0127 23.7431 12.0089 23.7867C11.9908 23.9996 11.9808 24.2106 11.9789 24.42C11.977 24.6294 11.9828 24.8364 11.9963 25.0411C12.0038 25.1536 12.0136 25.2647 12.0263 25.3753C12.0389 25.486 12.0535 25.5952 12.0708 25.7035C12.0764 25.7405 12.082 25.7766 12.0886 25.8127C12.0952 25.8488 12.1013 25.8849 12.1078 25.921C12.1169 25.9672 12.1263 26.0141 12.136 26.0616C12.1453 26.1085 12.1556 26.1553 12.1664 26.2022C12.1772 26.2491 12.1894 26.3011 12.202 26.3503C12.2147 26.3995 12.2278 26.4488 12.2419 26.4975C12.256 26.5463 12.2677 26.5913 12.2817 26.6381C12.2823 26.6406 12.2831 26.6429 12.2841 26.6452C12.2981 26.6836 12.3117 26.722 12.3263 26.7595H12.3192C12.3192 26.7656 12.323 26.7722 12.3253 26.7783C12.3445 26.8378 12.3647 26.8974 12.3853 26.9564C12.406 27.0155 12.428 27.0741 12.4505 27.1317C12.5099 27.2864 12.5749 27.4378 12.6455 27.586C12.7161 27.7341 12.792 27.8792 12.8733 28.0214C13.4269 28.9791 14.2378 29.7914 15.2381 30.4158C16.2385 31.0402 17.4277 31.4756 18.7369 31.6814C20.1745 31.9022 21.6849 31.8478 23.1956 31.5295ZM16.328 25.658C15.9856 25.0596 15.769 24.3977 15.6914 23.7127C15.6044 22.9306 15.6681 22.1392 15.8789 21.3811C15.9405 21.1543 16.0134 20.9307 16.0974 20.7113C16.6083 19.3739 17.5313 18.158 18.75 17.1891C19.132 16.8861 19.5359 16.6119 19.9585 16.3688C21.7781 15.3178 23.7994 14.9025 25.6481 15.1969C27.4866 15.4899 29.0067 16.4625 29.8167 17.8688C29.8838 17.9841 29.9456 18.1031 30.0042 18.2236C30.473 19.208 30.6056 20.3588 30.405 21.5297C30.329 21.9697 30.209 22.4009 30.0469 22.8169C29.6912 23.7275 29.1715 24.5651 28.5136 25.2881C27.9751 25.8845 27.3621 26.4091 26.6897 26.8491C26.526 26.9569 26.358 27.0606 26.1858 27.1603C24.7491 27.9891 23.1858 28.426 21.6811 28.426C21.2843 28.426 20.888 28.3946 20.4961 28.3322C19.1063 28.1114 17.8978 27.4983 17.0419 26.6049C16.7663 26.3194 16.5266 26.0015 16.328 25.658Z" fill="#313131"/>
<path d="M43.5 0H4.5C3.30653 0 2.16193 0.474106 1.31802 1.31802C0.474106 2.16193 0 3.30653 0 4.5L0 43.5C0 44.6935 0.474106 45.8381 1.31802 46.682C2.16193 47.5259 3.30653 48 4.5 48H43.5C44.6935 48 45.8381 47.5259 46.682 46.682C47.5259 45.8381 48 44.6935 48 43.5V4.5C48 3.30653 47.5259 2.16193 46.682 1.31802C45.8381 0.474106 44.6935 0 43.5 0V0ZM38.9958 27.9173C38.8256 29.2711 38.3611 30.5962 37.6364 31.8277C36.9117 33.0591 35.9259 34.1963 34.7142 35.1731C33.3183 36.2981 31.6852 37.1723 29.9011 37.7639C26.1834 38.9663 22.1813 38.9663 18.4636 37.7639C16.6786 37.1719 15.0469 36.2991 13.6491 35.1731C12.3895 34.1578 11.3747 32.97 10.6425 31.6819C9.91031 30.3938 9.26437 28.9866 9.20719 27.5977L9.01969 25.1709C9.005 24.9362 8.99813 24.6997 8.99906 24.4613C8.99906 24.3538 9.00078 24.2461 9.00422 24.1383C9.00766 24.0305 9.0125 23.9227 9.01875 23.8148C9.05085 23.2981 9.11598 22.7839 9.21375 22.2755C9.31465 21.7521 9.44803 21.2354 9.61312 20.7286C9.65063 20.6133 9.68969 20.4983 9.73031 20.3836C9.77109 20.2683 9.81375 20.1539 9.85781 20.0391C9.92031 19.8797 9.985 19.7211 10.0519 19.5633C10.1188 19.4055 10.1897 19.2492 10.2647 19.0945C10.9848 17.5855 11.9407 16.2008 13.0964 14.9925C15.6727 12.3037 18.9962 10.4495 22.6373 9.66937C24.4781 9.28969 26.3287 9.22922 28.1006 9.50578C29.8575 9.78047 31.4634 10.3837 32.8247 11.2556C34.1859 12.1275 35.3034 13.2689 36.0834 14.6184C36.5139 15.3675 36.8402 16.1718 37.0533 17.0091C37.2707 17.867 37.3796 18.749 37.3772 19.6341C37.377 20.2374 37.33 20.8399 37.2366 21.4359C37.1397 22.053 36.9976 22.6622 36.8114 23.2584C36.768 23.3972 36.722 23.5358 36.6736 23.6742C36.6252 23.8127 36.5742 23.9511 36.5208 24.0895C36.3677 24.4861 36.1958 24.8767 36.0052 25.2614C35.8145 25.6461 35.6063 26.0238 35.3803 26.3944C35.3555 26.4356 35.3306 26.4769 35.3053 26.5181C35.28 26.5594 35.2552 26.6002 35.2289 26.6409C35.2027 26.6817 35.1703 26.7347 35.1403 26.7816C35.1103 26.8284 35.0798 26.8753 35.0489 26.9222C35.0428 26.932 35.0367 26.9419 35.0302 26.9517C35.0241 26.9616 35.0176 26.9712 35.0105 26.9803C34.9698 27.0428 34.9283 27.1041 34.8858 27.1641C34.8441 27.225 34.8014 27.2859 34.7588 27.3464C34.7161 27.4069 34.6763 27.4617 34.6341 27.5194C34.5919 27.577 34.5497 27.6337 34.507 27.69C34.4058 27.8253 34.302 27.9591 34.1958 28.0913C34.0895 28.2234 33.9811 28.3544 33.8705 28.4841C33.2142 29.2509 32.4928 29.9595 31.7142 30.6019C30.9092 31.2658 30.0503 31.8616 29.1464 32.3831C27.8078 33.1595 26.3769 33.7646 24.8873 34.1841C23.4664 34.5852 21.9974 34.7911 20.5209 34.7962C20.1459 34.7962 19.7728 34.7822 19.4016 34.7541C19.1588 34.7358 18.9178 34.7072 18.6773 34.6786C18.7833 34.7208 18.8888 34.763 18.9961 34.8023C19.1477 34.858 19.3008 34.9109 19.4555 34.9613C19.6195 35.015 19.7847 35.0659 19.9509 35.1141C20.1172 35.1622 20.2855 35.2069 20.4558 35.2481C21.0562 35.396 21.6652 35.507 22.2792 35.5805C22.9109 35.6559 23.5466 35.6936 24.1828 35.6934C25.7876 35.7002 27.3834 35.4532 28.9111 34.9617C30.3783 34.4822 31.7138 33.7739 32.8486 32.8608C33.7226 32.1618 34.4604 31.3079 35.025 30.3417C35.5284 29.4534 35.8125 28.5675 35.8533 27.7969C35.865 27.5747 35.925 27.4636 36.0131 27.4078C36.1012 27.352 36.2189 27.352 36.3459 27.352H38.5022C38.5733 27.3516 38.6436 27.3666 38.7084 27.396C38.7731 27.4253 38.8307 27.4684 38.8772 27.5222C38.9237 27.576 38.9583 27.639 38.9787 27.7071C38.9992 27.7752 39.005 27.8468 38.9958 27.9173ZM41.6859 7.64062C39.2273 8.21344 38.3836 9.05719 37.8112 11.5153C37.7123 11.9372 37.1081 11.9372 37.0092 11.5153C36.4369 9.05719 35.5927 8.21344 33.1345 7.64062C32.7127 7.54219 32.7127 6.9375 33.1345 6.83906C35.5927 6.26625 36.4369 5.4225 37.0092 2.96391C37.1081 2.54203 37.7123 2.54203 37.8112 2.96391C38.3836 5.4225 39.2273 6.26625 41.6859 6.83906C42.1102 6.9375 42.1102 7.54172 41.6859 7.64062Z" fill="#313131"/>
<path d="M59.9578 26.9184C59.9578 20.6072 63.9591 16.2347 69.8166 16.2347C75.5503 16.2347 79.3041 20.1947 79.3041 26.1759V27.2456C79.3041 27.3451 79.2646 27.4405 79.1942 27.5108C79.1239 27.5811 79.0285 27.6206 78.9291 27.6206L63.7106 27.6609C63.9994 31.9097 66.2269 34.2609 70.0631 34.2609C72.9633 34.2609 74.9072 33.113 75.6361 30.9642C75.6618 30.891 75.7096 30.8275 75.7729 30.7826C75.8362 30.7377 75.9119 30.7135 75.9895 30.7134H78.8625C78.9203 30.7134 78.9772 30.7268 79.029 30.7524C79.0807 30.7781 79.1259 30.8154 79.1609 30.8613C79.1958 30.9073 79.2197 30.9607 79.2307 31.0174C79.2416 31.0741 79.2393 31.1326 79.2239 31.1883C78.0989 35.2223 74.7863 37.4784 69.9806 37.4784C64.0416 37.4784 59.9578 33.1875 59.9578 26.9184ZM63.7941 25.0622H75.4266C75.4266 21.7209 73.2403 19.4934 69.8166 19.4934C66.4341 19.4934 64.2891 21.5156 63.7941 25.0622Z" fill="#313131"/>
<path d="M84.0469 37.125V17.1872C84.0469 17.0877 84.0864 16.9923 84.1567 16.922C84.227 16.8517 84.3224 16.8122 84.4219 16.8122H87.225C87.3159 16.8122 87.4036 16.8452 87.472 16.905C87.5404 16.9648 87.5847 17.0474 87.5967 17.1375L87.9656 19.9059C89.2444 17.5959 91.8019 16.2347 94.6481 16.2347C99.9694 16.2347 102.403 19.4934 102.403 24.6497V37.125C102.403 37.2244 102.364 37.3198 102.293 37.3902C102.223 37.4605 102.128 37.5 102.028 37.5H98.9006C98.8012 37.5 98.7058 37.4605 98.6355 37.3902C98.5651 37.3198 98.5256 37.2244 98.5256 37.125V25.5159C98.5256 21.4322 96.6281 19.7822 93.6581 19.7822C90.0281 19.7822 87.9244 22.3809 87.9244 26.2978V37.125C87.9244 37.2244 87.8849 37.3198 87.8145 37.3902C87.7442 37.4605 87.6488 37.5 87.5494 37.5H84.4219C84.3224 37.5 84.227 37.4605 84.1567 37.3902C84.0864 37.3198 84.0469 37.2244 84.0469 37.125Z" fill="#313131"/>
<path d="M117.377 16.2759C123.4 16.2759 127.855 20.6484 127.855 26.8772C127.855 33.1059 123.402 37.4784 117.377 37.4784C111.314 37.4784 106.859 33.1059 106.859 26.8772C106.859 20.6484 111.314 16.2759 117.377 16.2759ZM117.377 34.0134C121.255 34.0134 123.977 31.0847 123.977 26.8772C123.977 22.6697 121.255 19.7409 117.377 19.7409C113.459 19.7409 110.777 22.6697 110.777 26.8772C110.777 31.0847 113.459 34.0134 117.377 34.0134Z" fill="#313131"/>
<path d="M129.73 16.8122H133.044C133.12 16.8123 133.193 16.835 133.255 16.8775C133.318 16.92 133.366 16.9802 133.393 17.0503L137.714 28.0734C138.417 29.9709 138.992 31.6622 139.322 32.9016C139.65 31.5816 140.312 29.8491 141.014 28.0734L145.416 17.048C145.444 16.9786 145.492 16.9193 145.554 16.8775C145.616 16.8357 145.689 16.8135 145.764 16.8136H148.99C149.052 16.8136 149.112 16.8289 149.167 16.858C149.221 16.8872 149.268 16.9293 149.302 16.9807C149.336 17.0321 149.357 17.0911 149.363 17.1526C149.369 17.214 149.36 17.276 149.336 17.333L141.234 37.2684C141.206 37.3368 141.158 37.3952 141.096 37.4362C141.034 37.4773 140.962 37.4991 140.888 37.4991H137.555C137.48 37.4991 137.407 37.4768 137.345 37.4351C137.283 37.3933 137.235 37.334 137.207 37.2647L129.383 17.3274C129.36 17.2704 129.351 17.2088 129.357 17.1477C129.364 17.0867 129.385 17.0282 129.42 16.9774C129.454 16.9265 129.5 16.8848 129.554 16.8561C129.609 16.8273 129.669 16.8122 129.73 16.8122Z" fill="#313131"/>
<path d="M151.161 31.3735C151.161 27.661 153.927 25.351 158.669 24.9797L165.021 24.4847V23.9063C165.021 20.5238 163 19.3275 160.277 19.3275C157.175 19.3275 155.343 20.6363 155.175 22.8624C155.167 22.9561 155.124 23.0434 155.054 23.1069C154.985 23.1703 154.894 23.2054 154.8 23.205H152.164C152.113 23.2051 152.062 23.1948 152.016 23.1747C151.969 23.1546 151.927 23.1252 151.891 23.0883C151.856 23.0514 151.829 23.0077 151.811 22.9599C151.794 22.9121 151.786 22.8612 151.789 22.8103C151.999 18.826 155.408 16.2338 160.441 16.2338C165.432 16.2338 168.815 18.8738 168.815 24.3188V36.6094C168.815 36.7088 168.775 36.8042 168.705 36.8746C168.635 36.9449 168.539 36.9844 168.44 36.9844H165.845C165.754 36.9843 165.666 36.9509 165.597 36.8905C165.529 36.8301 165.485 36.7468 165.473 36.6563L165.102 33.7252C164.071 36.0352 161.305 37.4789 158.048 37.4789C153.719 37.4785 151.161 35.0447 151.161 31.3735ZM165.062 28.2797V27.2072L159.906 27.6197C156.484 27.9478 155.078 29.2697 155.078 31.2497C155.078 33.3947 156.646 34.4672 159.162 34.4672C162.835 34.4672 165.062 32.0747 165.062 28.2797Z" fill="#313131"/>
<path d="M184.115 36.518C184.128 36.6038 184.112 36.6915 184.067 36.7662C184.023 36.8409 183.954 36.898 183.873 36.9277C182.891 37.2691 181.859 37.4414 180.82 37.4372C177.272 37.4372 175.251 35.4159 175.251 31.3322V20.0709H172.491C172.392 20.0709 172.296 20.0314 172.226 19.9611C172.156 19.8908 172.116 19.7954 172.116 19.6959V17.1872C172.116 17.0877 172.156 16.9923 172.226 16.922C172.296 16.8517 172.392 16.8122 172.491 16.8122H175.251V10.875C175.251 10.7755 175.291 10.6802 175.361 10.6098C175.431 10.5395 175.527 10.5 175.626 10.5H178.754C178.853 10.5 178.948 10.5395 179.019 10.6098C179.089 10.6802 179.129 10.7755 179.129 10.875V16.8122H183.456C183.556 16.8122 183.651 16.8517 183.721 16.922C183.792 16.9923 183.831 17.0877 183.831 17.1872V19.6959C183.831 19.7954 183.792 19.8908 183.721 19.9611C183.651 20.0314 183.556 20.0709 183.456 20.0709H179.129V30.7969C179.129 33.1069 180.201 33.9731 181.727 33.9731C182.246 33.9667 182.762 33.8878 183.259 33.7388C183.31 33.724 183.364 33.7203 183.417 33.728C183.469 33.7356 183.52 33.7544 183.565 33.783C183.61 33.8117 183.648 33.8495 183.677 33.8941C183.706 33.9387 183.725 33.989 183.734 34.0416L184.115 36.518Z" fill="#313131"/>
<path d="M187.049 26.9184C187.049 20.6072 191.05 16.2347 196.907 16.2347C202.641 16.2347 206.395 20.1947 206.395 26.1759V27.2456C206.395 27.3451 206.355 27.4405 206.285 27.5108C206.215 27.5811 206.119 27.6206 206.02 27.6206L190.801 27.6609C191.09 31.9097 193.317 34.2609 197.153 34.2609C200.054 34.2609 201.997 33.113 202.726 30.9642C202.752 30.8909 202.8 30.8274 202.863 30.7825C202.927 30.7375 203.003 30.7134 203.08 30.7134H205.953C206.011 30.7134 206.068 30.7267 206.119 30.7523C206.171 30.7779 206.216 30.8152 206.251 30.8611C206.287 30.9071 206.31 30.9605 206.321 31.0173C206.332 31.074 206.33 31.1326 206.315 31.1883C205.19 35.2223 201.877 37.4784 197.071 37.4784C191.132 37.4784 187.049 33.1875 187.049 26.9184ZM190.885 25.0622H202.517C202.517 21.7209 200.331 19.4934 196.907 19.4934C193.525 19.4934 191.38 21.5156 190.885 25.0622Z" fill="#313131"/>
<path d="M209.819 34.5909C209.819 32.9822 211.178 31.6622 212.789 31.6622C214.356 31.6622 215.717 32.9822 215.717 34.5909C215.717 36.1584 214.358 37.4784 212.789 37.4784C211.18 37.4784 209.819 36.1584 209.819 34.5909Z" fill="#313131"/>
</g>
<path d="M4.224 64.121C6.017 64.121 7.436 63.065 7.777 61.481H6.633C6.336 62.46 5.412 63.087 4.246 63.087C2.64 63.087 1.584 61.877 1.584 60.018C1.584 58.159 2.64 56.949 4.246 56.949C5.401 56.949 6.292 57.576 6.589 58.61H7.744C7.447 56.982 6.072 55.915 4.279 55.915C2.002 55.915 0.451 57.576 0.451 60.029C0.451 62.493 1.958 64.121 4.224 64.121ZM12.0028 58.577C11.7938 58.533 11.6398 58.511 11.4528 58.511C10.7158 58.511 10.1768 58.885 9.9568 59.446L9.8908 58.632H8.9228V64H9.9568V61.151C9.9568 60.117 10.5618 59.523 11.5408 59.523H12.0028V58.577ZM15.1003 64.132C16.4313 64.132 17.3333 63.483 17.5973 62.328H16.6293C16.4533 62.944 15.9253 63.274 15.1223 63.274C14.0993 63.274 13.5053 62.647 13.4283 61.514L17.5862 61.503V61.118C17.5862 59.523 16.5853 58.467 15.0563 58.467C13.4943 58.467 12.4273 59.633 12.4273 61.316C12.4273 62.988 13.5163 64.132 15.1003 64.132ZM15.0563 59.336C15.9693 59.336 16.5523 59.93 16.5523 60.821H13.4503C13.5823 59.875 14.1543 59.336 15.0563 59.336ZM20.2605 64.132C21.1295 64.132 21.8665 63.747 22.1415 63.131L22.2515 64H23.1315V60.623C23.1315 59.171 22.2295 58.467 20.8985 58.467C19.5125 58.467 18.5885 59.204 18.5885 60.326H19.4905C19.4905 59.677 19.9855 59.292 20.8545 59.292C21.5805 59.292 22.1195 59.611 22.1195 60.513V60.667L20.4255 60.799C19.1605 60.898 18.4235 61.514 18.4235 62.504C18.4235 63.483 19.1055 64.132 20.2605 64.132ZM20.5575 63.329C19.8865 63.329 19.4685 63.043 19.4685 62.471C19.4685 61.943 19.8425 61.591 20.7555 61.503L22.1305 61.393V61.679C22.1305 62.691 21.5365 63.329 20.5575 63.329ZM25.9955 64V59.49H27.0515V58.621H25.9955V56.938H24.9615V58.621H23.9055V59.49H24.9615V64H25.9955ZM28.4854 57.345C28.8594 57.345 29.1674 57.037 29.1674 56.663C29.1674 56.278 28.8594 55.981 28.4854 55.981C28.1114 55.981 27.8034 56.278 27.8034 56.663C27.8034 57.037 28.1114 57.345 28.4854 57.345ZM27.9794 64H29.0134V58.621H27.9794V64ZM32.0216 64H33.0446L35.2886 58.621H34.2106L33.0116 61.624C32.8246 62.097 32.6486 62.559 32.5606 62.911C32.4726 62.581 32.3186 62.13 32.1316 61.624L30.9546 58.621H29.8546L32.0216 64ZM38.1852 64.132C39.5162 64.132 40.4182 63.483 40.6822 62.328H39.7142C39.5382 62.944 39.0102 63.274 38.2072 63.274C37.1842 63.274 36.5902 62.647 36.5132 61.514L40.6712 61.503V61.118C40.6712 59.523 39.6702 58.467 38.1412 58.467C36.5792 58.467 35.5122 59.633 35.5122 61.316C35.5122 62.988 36.6012 64.132 38.1852 64.132ZM38.1412 59.336C39.0542 59.336 39.6372 59.93 39.6372 60.821H36.5352C36.6672 59.875 37.2392 59.336 38.1412 59.336ZM47.6389 64C49.9929 64 51.5769 62.394 51.5769 60.029C51.5769 57.653 49.9709 56.047 47.5949 56.047H45.0099V64H47.6389ZM47.5179 57.037C49.3329 57.037 50.4549 58.181 50.4549 60.029C50.4549 61.855 49.3329 62.999 47.5619 62.999H46.0879V57.037H47.5179ZM55.0934 64.132C56.4244 64.132 57.3264 63.483 57.5904 62.328H56.6224C56.4464 62.944 55.9184 63.274 55.1154 63.274C54.0924 63.274 53.4984 62.647 53.4214 61.514L57.5794 61.503V61.118C57.5794 59.523 56.5784 58.467 55.0494 58.467C53.4874 58.467 52.4204 59.633 52.4204 61.316C52.4204 62.988 53.5094 64.132 55.0934 64.132ZM55.0494 59.336C55.9624 59.336 56.5454 59.93 56.5454 60.821H53.4434C53.5754 59.875 54.1474 59.336 55.0494 59.336ZM58.2943 62.438C58.2943 63.461 59.0973 64.132 60.3623 64.132C61.6383 64.132 62.5183 63.483 62.5183 62.46C62.5183 61.657 62.0673 61.239 61.1543 61.019L60.2083 60.788C59.6803 60.656 59.4163 60.414 59.4163 60.051C59.4163 59.556 59.7793 59.27 60.4283 59.27C61.0553 59.27 61.4183 59.611 61.4403 60.15H62.4303C62.4083 59.127 61.6383 58.467 60.4613 58.467C59.2733 58.467 58.4373 59.094 58.4373 60.084C58.4373 60.876 58.8883 61.349 59.8453 61.58L60.7913 61.8C61.3523 61.943 61.5283 62.163 61.5283 62.526C61.5283 63.021 61.1103 63.318 60.3843 63.318C59.7023 63.318 59.2843 62.988 59.2843 62.438H58.2943ZM64.171 57.345C64.545 57.345 64.853 57.037 64.853 56.663C64.853 56.278 64.545 55.981 64.171 55.981C63.797 55.981 63.489 56.278 63.489 56.663C63.489 57.037 63.797 57.345 64.171 57.345ZM63.665 64H64.699V58.621H63.665V64ZM65.8591 61.173C65.8591 62.68 66.8271 63.857 68.3561 63.857C69.2031 63.857 69.9071 63.483 70.2591 62.856V63.934C70.2591 64.957 69.5991 65.617 68.5871 65.617C67.6851 65.617 67.0911 65.155 66.9591 64.363H65.9251C66.1231 65.727 67.1241 66.552 68.5871 66.552C70.2371 66.552 71.2821 65.474 71.2821 63.78V58.621H70.3581L70.2811 59.534C69.9401 58.863 69.2691 58.467 68.4001 58.467C66.8381 58.467 65.8591 59.655 65.8591 61.173ZM66.8931 61.151C66.8931 60.161 67.5091 59.369 68.5431 59.369C69.5991 59.369 70.2151 60.117 70.2151 61.151C70.2151 62.207 69.5771 62.955 68.5321 62.955C67.5201 62.955 66.8931 62.163 66.8931 61.151ZM73.8084 64V61.151C73.8084 60.106 74.3694 59.413 75.3374 59.413C76.1294 59.413 76.6354 59.853 76.6354 60.942V64H77.6694V60.711C77.6694 59.336 77.0204 58.467 75.6014 58.467C74.8424 58.467 74.1604 58.83 73.8194 59.446L73.7094 58.621H72.7744V64H73.8084ZM83.6823 64.132C84.5513 64.132 85.2883 63.747 85.5633 63.131L85.6733 64H86.5533V60.623C86.5533 59.171 85.6513 58.467 84.3203 58.467C82.9343 58.467 82.0103 59.204 82.0103 60.326H82.9123C82.9123 59.677 83.4073 59.292 84.2763 59.292C85.0023 59.292 85.5413 59.611 85.5413 60.513V60.667L83.8473 60.799C82.5823 60.898 81.8453 61.514 81.8453 62.504C81.8453 63.483 82.5273 64.132 83.6823 64.132ZM83.9793 63.329C83.3083 63.329 82.8903 63.043 82.8903 62.471C82.8903 61.943 83.2643 61.591 84.1773 61.503L85.5523 61.393V61.679C85.5523 62.691 84.9583 63.329 83.9793 63.329ZM89.0193 64V61.151C89.0193 60.106 89.5803 59.413 90.5483 59.413C91.3403 59.413 91.8463 59.853 91.8463 60.942V64H92.8803V60.711C92.8803 59.336 92.2313 58.467 90.8123 58.467C90.0533 58.467 89.3713 58.83 89.0303 59.446L88.9203 58.621H87.9853V64H89.0193ZM96.4685 64.132C97.3265 64.132 98.0525 63.758 98.4045 63.021L98.4925 64H99.4165V55.904H98.3935V59.49C98.0305 58.83 97.3375 58.467 96.5125 58.467C94.9175 58.467 93.9605 59.677 93.9605 61.327C93.9605 62.966 94.9065 64.132 96.4685 64.132ZM96.6775 63.197C95.6215 63.197 95.0055 62.405 95.0055 61.294C95.0055 60.194 95.6215 59.402 96.6775 59.402C97.7335 59.402 98.3825 60.194 98.3825 61.294C98.3825 62.416 97.7335 63.197 96.6775 63.197ZM106.721 64C109.075 64 110.659 62.394 110.659 60.029C110.659 57.653 109.053 56.047 106.677 56.047H104.092V64H106.721ZM106.6 57.037C108.415 57.037 109.537 58.181 109.537 60.029C109.537 61.855 108.415 62.999 106.644 62.999H105.17V57.037H106.6ZM114.175 64.132C115.506 64.132 116.408 63.483 116.672 62.328H115.704C115.528 62.944 115 63.274 114.197 63.274C113.174 63.274 112.58 62.647 112.503 61.514L116.661 61.503V61.118C116.661 59.523 115.66 58.467 114.131 58.467C112.569 58.467 111.502 59.633 111.502 61.316C111.502 62.988 112.591 64.132 114.175 64.132ZM114.131 59.336C115.044 59.336 115.627 59.93 115.627 60.821H112.525C112.657 59.875 113.229 59.336 114.131 59.336ZM119.141 64H120.164L122.408 58.621H121.33L120.131 61.624C119.944 62.097 119.768 62.559 119.68 62.911C119.592 62.581 119.438 62.13 119.251 61.624L118.074 58.621H116.974L119.141 64ZM125.304 64.132C126.635 64.132 127.537 63.483 127.801 62.328H126.833C126.657 62.944 126.129 63.274 125.326 63.274C124.303 63.274 123.709 62.647 123.632 61.514L127.79 61.503V61.118C127.79 59.523 126.789 58.467 125.26 58.467C123.698 58.467 122.631 59.633 122.631 61.316C122.631 62.988 123.72 64.132 125.304 64.132ZM125.26 59.336C126.173 59.336 126.756 59.93 126.756 60.821H123.654C123.786 59.875 124.358 59.336 125.26 59.336ZM130.001 64V55.904H128.967V64H130.001ZM131.171 61.305C131.171 62.966 132.359 64.132 133.976 64.132C135.582 64.132 136.77 62.966 136.77 61.305C136.77 59.644 135.582 58.478 133.976 58.478C132.359 58.478 131.171 59.644 131.171 61.305ZM132.216 61.305C132.216 60.183 132.931 59.402 133.976 59.402C135.01 59.402 135.736 60.183 135.736 61.305C135.736 62.427 135.01 63.208 133.976 63.208C132.931 63.208 132.216 62.427 132.216 61.305ZM137.915 66.409H138.949V63.12C139.301 63.78 140.016 64.143 140.874 64.143C142.469 64.143 143.371 62.911 143.371 61.272C143.371 59.622 142.414 58.467 140.874 58.467C140.016 58.467 139.29 58.852 138.927 59.589L138.85 58.621H137.915V66.409ZM138.96 61.316C138.96 60.194 139.598 59.413 140.654 59.413C141.71 59.413 142.337 60.205 142.337 61.316C142.337 62.416 141.71 63.208 140.654 63.208C139.598 63.208 138.96 62.416 138.96 61.316ZM145.545 64V60.81C145.545 59.952 146.062 59.413 146.843 59.413C147.569 59.413 148.031 59.875 148.031 60.722V64H149.054V60.81C149.054 59.952 149.571 59.402 150.352 59.402C151.078 59.402 151.551 59.886 151.551 60.733V64H152.563V60.48C152.563 59.237 151.815 58.467 150.583 58.467C149.747 58.467 149.098 58.885 148.845 59.556C148.57 58.885 147.976 58.467 147.14 58.467C146.381 58.467 145.809 58.819 145.534 59.325L145.435 58.621H144.511V64H145.545ZM156.317 64.132C157.648 64.132 158.55 63.483 158.814 62.328H157.846C157.67 62.944 157.142 63.274 156.339 63.274C155.316 63.274 154.722 62.647 154.645 61.514L158.803 61.503V61.118C158.803 59.523 157.802 58.467 156.273 58.467C154.711 58.467 153.644 59.633 153.644 61.316C153.644 62.988 154.733 64.132 156.317 64.132ZM156.273 59.336C157.186 59.336 157.769 59.93 157.769 60.821H154.667C154.799 59.875 155.371 59.336 156.273 59.336ZM160.992 64V61.151C160.992 60.106 161.553 59.413 162.521 59.413C163.313 59.413 163.819 59.853 163.819 60.942V64H164.853V60.711C164.853 59.336 164.204 58.467 162.785 58.467C162.026 58.467 161.344 58.83 161.003 59.446L160.893 58.621H159.958V64H160.992ZM167.803 64V59.49H168.859V58.621H167.803V56.938H166.769V58.621H165.713V59.49H166.769V64H167.803ZM173.301 64L174.005 62.02H177.349L178.064 64H179.197L176.282 56.047H175.083L172.179 64H173.301ZM175.545 57.763C175.6 57.598 175.655 57.411 175.677 57.301C175.699 57.422 175.754 57.609 175.809 57.763L177.03 61.085H174.335L175.545 57.763ZM179.64 61.173C179.64 62.68 180.608 63.857 182.137 63.857C182.984 63.857 183.688 63.483 184.04 62.856V63.934C184.04 64.957 183.38 65.617 182.368 65.617C181.466 65.617 180.872 65.155 180.74 64.363H179.706C179.904 65.727 180.905 66.552 182.368 66.552C184.018 66.552 185.063 65.474 185.063 63.78V58.621H184.139L184.062 59.534C183.721 58.863 183.05 58.467 182.181 58.467C180.619 58.467 179.64 59.655 179.64 61.173ZM180.674 61.151C180.674 60.161 181.29 59.369 182.324 59.369C183.38 59.369 183.996 60.117 183.996 61.151C183.996 62.207 183.358 62.955 182.313 62.955C181.301 62.955 180.674 62.163 180.674 61.151ZM188.877 64.132C190.208 64.132 191.11 63.483 191.374 62.328H190.406C190.23 62.944 189.702 63.274 188.899 63.274C187.876 63.274 187.282 62.647 187.205 61.514L191.363 61.503V61.118C191.363 59.523 190.362 58.467 188.833 58.467C187.271 58.467 186.204 59.633 186.204 61.316C186.204 62.988 187.293 64.132 188.877 64.132ZM188.833 59.336C189.746 59.336 190.329 59.93 190.329 60.821H187.227C187.359 59.875 187.931 59.336 188.833 59.336ZM193.552 64V61.151C193.552 60.106 194.113 59.413 195.081 59.413C195.873 59.413 196.379 59.853 196.379 60.942V64H197.413V60.711C197.413 59.336 196.764 58.467 195.345 58.467C194.586 58.467 193.904 58.83 193.563 59.446L193.453 58.621H192.518V64H193.552ZM198.493 61.316C198.493 63.01 199.538 64.132 201.122 64.132C202.42 64.132 203.421 63.351 203.63 62.185H202.596C202.409 62.823 201.859 63.208 201.122 63.208C200.143 63.208 199.516 62.46 199.516 61.305C199.516 60.139 200.187 59.391 201.166 59.391C201.859 59.391 202.409 59.754 202.585 60.436H203.619C203.432 59.237 202.486 58.467 201.133 58.467C199.56 58.467 198.493 59.633 198.493 61.316ZM204.096 66.409C204.371 66.475 204.657 66.519 204.998 66.519C205.823 66.519 206.362 66.134 206.725 65.21L209.266 58.621H208.199L206.604 62.955L205.042 58.621H203.953L206.12 64.286L205.933 64.803C205.68 65.485 205.284 65.562 204.789 65.562H204.096V66.409ZM209.949 64.132C210.367 64.132 210.73 63.78 210.73 63.362C210.73 62.933 210.367 62.581 209.949 62.581C209.52 62.581 209.157 62.933 209.157 63.362C209.157 63.78 209.52 64.132 209.949 64.132Z" fill="#767676"/>
<defs>
<clipPath id="clip0_6_148">
<rect width="215.717" height="48" fill="white"/>
</clipPath>
</defs>
</svg>
