<svg width="180" height="40" viewBox="0 0 180 40" fill="none" xmlns="http://www.w3.org/2000/svg">
<g clip-path="url(#clip0_23_125)">
<path d="M20.7423 20.759C20.7681 20.7437 20.795 20.7281 20.8204 20.7117C21.8696 20.0867 22.6481 19.2133 23.0196 18.2414C23.2169 17.7266 23.2864 17.2137 23.2294 16.757C23.1978 16.4814 23.1113 16.2148 22.9751 15.973C22.7591 15.6 22.4083 15.2949 21.9638 15.0828C21.5192 14.8707 20.9794 14.752 20.388 14.752C19.5622 14.752 18.6345 14.9828 17.7134 15.5141C17.3299 15.7337 16.9723 15.9958 16.6474 16.2953C15.3696 17.4781 14.9489 18.9961 15.3583 20.0402C15.3932 20.1297 15.4347 20.2164 15.4825 20.2996C16.211 21.5668 18.5001 22.0535 20.7423 20.759Z" fill="#313131"/>
<path d="M19.3297 26.2746C20.6371 25.9926 21.8916 25.5058 23.0469 24.832C23.5599 24.5368 24.0526 24.2076 24.5215 23.8465C24.9758 23.4968 25.4051 23.1158 25.8063 22.7063C25.9709 22.5383 26.1292 22.3665 26.2813 22.191C26.4334 22.0155 26.5792 21.8365 26.7188 21.6539C26.9558 21.3441 27.1756 21.0215 27.377 20.6875C27.5748 20.3596 27.7533 20.0205 27.9118 19.6719C27.9508 19.5906 27.9848 19.5086 28.0196 19.4266C28.0543 19.3445 28.0875 19.2613 28.1196 19.1785C28.2689 18.7929 28.3899 18.3969 28.4817 17.9938C28.5692 17.6082 28.6262 17.2164 28.652 16.8219C28.6951 16.2202 28.6545 15.6155 28.5313 15.025C28.4134 14.4615 28.2075 13.9201 27.9211 13.4207C27.6881 13.0185 27.4041 12.648 27.0762 12.3184C26.7371 11.9781 26.3597 11.6783 25.9516 11.425C25.5222 11.1588 25.0661 10.9383 24.5907 10.7672C24.0863 10.5854 23.5657 10.4525 23.036 10.3703C22.792 10.3328 22.5457 10.3044 22.2973 10.2852C22.0489 10.2659 21.7987 10.2564 21.5469 10.2566C20.5337 10.261 19.5258 10.4045 18.5516 10.6832C17.5205 10.977 16.5301 11.398 15.6032 11.9367C14.7889 12.4057 14.0277 12.9613 13.3329 13.5938C12.6718 14.1938 12.0831 14.8691 11.5789 15.6059C11.3655 15.9188 11.1699 16.2435 10.993 16.5785C10.819 16.9077 10.6646 17.2468 10.5305 17.5941C10.4654 17.7621 10.4062 17.9303 10.3528 18.0988C10.2993 18.2672 10.252 18.4352 10.2098 18.6035L10.1946 18.6668C10.1895 18.6879 10.1848 18.7086 10.1801 18.7293C10.1754 18.75 10.17 18.7715 10.1653 18.7926C10.1606 18.8137 10.1563 18.834 10.152 18.8547C10.1426 18.8965 10.134 18.9383 10.1258 18.9801C10.1176 19.0219 10.1098 19.0641 10.1024 19.1059C10.0961 19.1398 10.0903 19.1742 10.0848 19.2082C10.0793 19.2422 10.0735 19.2766 10.0684 19.3105C10.0653 19.3297 10.0625 19.3496 10.0598 19.368L10.0516 19.4254C10.0477 19.4555 10.0434 19.4852 10.0395 19.5148C10.0356 19.5445 10.0321 19.5742 10.0289 19.6043C10.025 19.6402 10.0211 19.677 10.0172 19.7133C10.0133 19.7496 10.0106 19.7859 10.0075 19.8223C9.99236 19.9996 9.98403 20.1755 9.98246 20.35C9.9809 20.5245 9.98572 20.697 9.99692 20.8676C10.0032 20.9613 10.0114 21.0539 10.0219 21.1461C10.0325 21.2383 10.0446 21.3293 10.059 21.4195C10.0637 21.4504 10.0684 21.4805 10.0739 21.5105C10.0793 21.5406 10.0844 21.5707 10.0899 21.6008C10.0974 21.6393 10.1053 21.6784 10.1133 21.718C10.1211 21.757 10.1297 21.7961 10.1387 21.8352C10.1477 21.8742 10.1579 21.9176 10.1684 21.9586C10.1789 21.9996 10.1899 22.0406 10.2016 22.0813C10.2133 22.1219 10.2231 22.1594 10.2348 22.1984C10.2353 22.2004 10.2359 22.2024 10.2368 22.2043C10.2485 22.2363 10.2598 22.2684 10.2719 22.2996H10.2661C10.2661 22.3047 10.2692 22.3102 10.2711 22.3152C10.2872 22.3648 10.3039 22.4145 10.3211 22.4637C10.3383 22.5129 10.3567 22.5617 10.3754 22.6098C10.4249 22.7387 10.4791 22.8648 10.5379 22.9883C10.5968 23.1117 10.6601 23.2327 10.7278 23.3512C11.1891 24.1492 11.8649 24.8262 12.6985 25.3465C13.5321 25.8668 14.5231 26.2297 15.6141 26.4012C16.8122 26.5852 18.0707 26.5398 19.3297 26.2746ZM13.6067 21.3816C13.3214 20.883 13.1409 20.3314 13.0762 19.7605C13.0037 19.1089 13.0568 18.4493 13.2325 17.8176C13.2837 17.6286 13.3445 17.4423 13.4145 17.2594C13.8403 16.1449 14.6094 15.1316 15.625 14.3242C15.9433 14.0717 16.2799 13.8433 16.6321 13.6406C18.1485 12.7648 19.8329 12.4188 21.3735 12.6641C22.9055 12.9082 24.1723 13.7188 24.8473 14.8906C24.9032 14.9867 24.9547 15.0859 25.0036 15.1863C25.3942 16.0066 25.5047 16.9656 25.3375 17.9414C25.2742 18.308 25.1742 18.6674 25.0391 19.0141C24.7427 19.7729 24.3096 20.4709 23.7614 21.0734C23.3126 21.5704 22.8018 22.0076 22.2415 22.3742C22.105 22.4641 21.965 22.5505 21.8215 22.6336C20.6243 23.3242 19.3215 23.6883 18.0676 23.6883C17.7369 23.6883 17.4067 23.6622 17.0801 23.6102C15.9219 23.4262 14.9149 22.9152 14.2016 22.1707C13.972 21.9328 13.7722 21.6679 13.6067 21.3816Z" fill="#313131"/>
<path d="M36.25 0H3.75C2.75544 0 1.80161 0.395088 1.09835 1.09835C0.395088 1.80161 0 2.75544 0 3.75L0 36.25C0 37.2446 0.395088 38.1984 1.09835 38.9016C1.80161 39.6049 2.75544 40 3.75 40H36.25C37.2446 40 38.1984 39.6049 38.9016 38.9016C39.6049 38.1984 40 37.2446 40 36.25V3.75C40 2.75544 39.6049 1.80161 38.9016 1.09835C38.1984 0.395088 37.2446 0 36.25 0V0ZM32.4965 23.2645C32.3547 24.3926 31.9676 25.4969 31.3637 26.523C30.7598 27.5492 29.9383 28.4969 28.9285 29.3109C27.7652 30.2484 26.4043 30.977 24.9176 31.4699C21.8195 32.4719 18.4844 32.4719 15.3863 31.4699C13.8988 30.9766 12.5391 30.2492 11.3742 29.3109C10.3246 28.4648 9.47891 27.475 8.86875 26.4016C8.25859 25.3281 7.72031 24.1555 7.67266 22.998L7.51641 20.9758C7.50417 20.7802 7.49844 20.5831 7.49922 20.3844C7.49922 20.2948 7.50065 20.2051 7.50352 20.1152C7.50638 20.0254 7.51042 19.9355 7.51562 19.8457C7.54237 19.4151 7.59665 18.9866 7.67812 18.5629C7.76221 18.1267 7.87336 17.6962 8.01094 17.2738C8.04219 17.1777 8.07474 17.0819 8.10859 16.9863C8.14258 16.8902 8.17813 16.7949 8.21484 16.6992C8.26693 16.5664 8.32083 16.4342 8.37656 16.3027C8.43229 16.1712 8.49141 16.041 8.55391 15.9121C9.15401 14.6546 9.95058 13.5007 10.9137 12.4937C13.0606 10.2531 15.8301 8.70788 18.8645 8.05781C20.3984 7.74141 21.9406 7.69102 23.4172 7.92148C24.8812 8.15039 26.2195 8.65312 27.3539 9.37969C28.4883 10.1062 29.4195 11.0574 30.0695 12.182C30.4283 12.8063 30.7002 13.4765 30.8777 14.1742C31.059 14.8892 31.1496 15.6241 31.1477 16.3617C31.1475 16.8645 31.1083 17.3665 31.0305 17.8633C30.9498 18.3775 30.8314 18.8852 30.6762 19.382C30.64 19.4977 30.6017 19.6131 30.5613 19.7285C30.521 19.8439 30.4785 19.9592 30.434 20.0746C30.3064 20.4051 30.1632 20.7306 30.0043 21.0512C29.8454 21.3717 29.6719 21.6865 29.4836 21.9953C29.4629 22.0297 29.4422 22.0641 29.4211 22.0984C29.4 22.1328 29.3793 22.1668 29.3574 22.2008C29.3355 22.2348 29.3086 22.2789 29.2836 22.318C29.2586 22.357 29.2332 22.3961 29.2074 22.4352C29.2023 22.4434 29.1973 22.4516 29.1918 22.4598C29.1868 22.468 29.1813 22.476 29.1754 22.4836C29.1415 22.5357 29.1069 22.5867 29.0715 22.6367C29.0367 22.6875 29.0012 22.7383 28.9656 22.7887C28.9301 22.8391 28.8969 22.8848 28.8617 22.9328C28.8266 22.9809 28.7914 23.0281 28.7559 23.075C28.6715 23.1878 28.585 23.2992 28.4965 23.4094C28.4079 23.5195 28.3176 23.6286 28.2254 23.7367C27.6785 24.3758 27.0773 24.9663 26.4285 25.5016C25.7576 26.0548 25.0419 26.5513 24.2887 26.9859C23.1731 27.6329 21.9807 28.1371 20.7395 28.4867C19.5553 28.821 18.3312 28.9926 17.1008 28.9969C16.7883 28.9969 16.4773 28.9852 16.168 28.9617C15.9656 28.9465 15.7648 28.9227 15.5645 28.8988C15.6527 28.934 15.7406 28.9691 15.8301 29.002C15.9564 29.0483 16.084 29.0924 16.2129 29.1344C16.3496 29.1792 16.4872 29.2216 16.6258 29.2617C16.7643 29.3018 16.9046 29.3391 17.0465 29.3734C17.5469 29.4967 18.0543 29.5892 18.566 29.6504C19.0925 29.7133 19.6222 29.7447 20.1523 29.7445C21.4897 29.7501 22.8195 29.5443 24.0926 29.1348C25.3152 28.7352 26.4281 28.1449 27.3738 27.384C28.1022 26.8015 28.717 26.0899 29.1875 25.2848C29.607 24.5445 29.8438 23.8062 29.8777 23.1641C29.8875 22.9789 29.9375 22.8863 30.0109 22.8398C30.0844 22.7934 30.1824 22.7934 30.2883 22.7934H32.0852C32.1444 22.793 32.203 22.8055 32.257 22.83C32.3109 22.8544 32.3589 22.8903 32.3977 22.9352C32.4364 22.98 32.4652 23.0325 32.4823 23.0892C32.4993 23.146 32.5042 23.2057 32.4965 23.2645ZM34.7383 6.36719C32.6895 6.84453 31.9863 7.54766 31.5094 9.59609C31.427 9.94766 30.9234 9.94766 30.841 9.59609C30.3641 7.54766 29.6605 6.84453 27.6121 6.36719C27.2605 6.28516 27.2605 5.78125 27.6121 5.69922C29.6605 5.22187 30.3641 4.51875 30.841 2.46992C30.9234 2.11836 31.427 2.11836 31.5094 2.46992C31.9863 4.51875 32.6895 5.22187 34.7383 5.69922C35.0918 5.78125 35.0918 6.28477 34.7383 6.36719Z" fill="#313131"/>
<path d="M49.9648 22.432C49.9648 17.1727 53.2992 13.5289 58.1805 13.5289C62.9586 13.5289 66.0867 16.8289 66.0867 21.8133V22.7047C66.0867 22.7876 66.0538 22.867 65.9952 22.9257C65.9366 22.9843 65.8571 23.0172 65.7742 23.0172L53.0922 23.0508C53.3328 26.5914 55.1891 28.5508 58.3859 28.5508C60.8027 28.5508 62.4227 27.5941 63.0301 25.8035C63.0515 25.7425 63.0913 25.6896 63.1441 25.6522C63.1969 25.6147 63.2599 25.5946 63.3246 25.5945H65.7188C65.7669 25.5945 65.8144 25.6057 65.8575 25.627C65.9006 25.6484 65.9382 25.6795 65.9674 25.7178C65.9965 25.7561 66.0164 25.8006 66.0256 25.8478C66.0347 25.8951 66.0327 25.9438 66.0199 25.9902C65.0824 29.3519 62.3219 31.232 58.3172 31.232C53.368 31.232 49.9648 27.6562 49.9648 22.432ZM53.1617 20.8851H62.8555C62.8555 18.1008 61.0336 16.2445 58.1805 16.2445C55.3617 16.2445 53.5742 17.9297 53.1617 20.8851Z" fill="#313131"/>
<path d="M70.0391 30.9375V14.3227C70.0391 14.2398 70.072 14.1603 70.1306 14.1017C70.1892 14.0431 70.2687 14.0102 70.3516 14.0102H72.6875C72.7632 14.0101 72.8363 14.0376 72.8933 14.0875C72.9503 14.1374 72.9872 14.2062 72.9973 14.2812L73.3047 16.5883C74.3703 14.6633 76.5016 13.5289 78.8734 13.5289C83.3078 13.5289 85.3359 16.2445 85.3359 20.5414V30.9375C85.3359 31.0204 85.303 31.0999 85.2444 31.1585C85.1858 31.2171 85.1063 31.25 85.0234 31.25H82.4172C82.3343 31.25 82.2548 31.2171 82.1962 31.1585C82.1376 31.0999 82.1047 31.0204 82.1047 30.9375V21.2633C82.1047 17.8602 80.5234 16.4851 78.0484 16.4851C75.0234 16.4851 73.2703 18.6508 73.2703 21.9148V30.9375C73.2703 31.0204 73.2374 31.0999 73.1788 31.1585C73.1202 31.2171 73.0407 31.25 72.9578 31.25H70.3516C70.2687 31.25 70.1892 31.2171 70.1306 31.1585C70.072 31.0999 70.0391 31.0204 70.0391 30.9375Z" fill="#313131"/>
<path d="M97.8145 13.5633C102.833 13.5633 106.546 17.207 106.546 22.3977C106.546 27.5883 102.835 31.232 97.8145 31.232C92.7613 31.232 89.0488 27.5883 89.0488 22.3977C89.0488 17.207 92.7613 13.5633 97.8145 13.5633ZM97.8145 28.3445C101.046 28.3445 103.314 25.9039 103.314 22.3977C103.314 18.8914 101.046 16.4508 97.8145 16.4508C94.5488 16.4508 92.3145 18.8914 92.3145 22.3977C92.3145 25.9039 94.5488 28.3445 97.8145 28.3445Z" fill="#313131"/>
<path d="M108.109 14.0102H110.87C110.933 14.0102 110.994 14.0292 111.046 14.0646C111.098 14.1 111.138 14.1502 111.161 14.2086L114.761 23.3945C115.347 24.9758 115.827 26.3852 116.102 27.418C116.375 26.318 116.927 24.8742 117.511 23.3945L121.18 14.2066C121.203 14.1489 121.243 14.0994 121.295 14.0646C121.347 14.0298 121.408 14.0112 121.47 14.0113H124.158C124.21 14.0114 124.26 14.0241 124.306 14.0484C124.351 14.0727 124.39 14.1078 124.418 14.1506C124.447 14.1934 124.464 14.2426 124.469 14.2938C124.474 14.345 124.466 14.3967 124.447 14.4441L117.695 31.057C117.672 31.114 117.631 31.1626 117.58 31.1968C117.529 31.231 117.468 31.2493 117.407 31.2492H114.629C114.567 31.2493 114.506 31.2307 114.454 31.1959C114.403 31.1611 114.362 31.1116 114.339 31.0539L107.819 14.4395C107.8 14.392 107.792 14.3406 107.798 14.2898C107.803 14.2389 107.821 14.1902 107.85 14.1478C107.878 14.1054 107.917 14.0707 107.962 14.0467C108.007 14.0227 108.057 14.0102 108.109 14.0102Z" fill="#313131"/>
<path d="M125.968 26.1445C125.968 23.0508 128.272 21.1258 132.224 20.8164L137.518 20.4039V19.9219C137.518 17.1031 135.833 16.1063 133.564 16.1063C130.979 16.1063 129.453 17.1969 129.312 19.052C129.306 19.1301 129.27 19.2028 129.212 19.2557C129.154 19.3086 129.078 19.3378 129 19.3375H126.803C126.761 19.3376 126.719 19.329 126.68 19.3123C126.641 19.2955 126.605 19.271 126.576 19.2403C126.547 19.2095 126.524 19.1731 126.509 19.1332C126.495 19.0934 126.488 19.051 126.491 19.0086C126.666 15.6883 129.507 13.5281 133.701 13.5281C137.86 13.5281 140.679 15.7281 140.679 20.2656V30.5078C140.679 30.5907 140.646 30.6702 140.587 30.7288C140.529 30.7874 140.449 30.8203 140.366 30.8203H138.204C138.128 30.8203 138.055 30.7924 137.998 30.7421C137.941 30.6918 137.904 30.6224 137.894 30.5469L137.585 28.1043C136.726 30.0293 134.421 31.2324 131.707 31.2324C128.099 31.232 125.968 29.2039 125.968 26.1445ZM137.552 23.5664V22.6727L133.255 23.0164C130.403 23.2899 129.232 24.3914 129.232 26.0414C129.232 27.8289 130.538 28.7227 132.635 28.7227C135.696 28.7227 137.552 26.7289 137.552 23.5664Z" fill="#313131"/>
<path d="M153.429 30.4316C153.44 30.5031 153.426 30.5762 153.39 30.6385C153.353 30.7008 153.295 30.7483 153.227 30.773C152.41 31.0576 151.549 31.2012 150.683 31.1977C147.727 31.1977 146.043 29.5133 146.043 26.1102V16.7258H143.743C143.66 16.7258 143.58 16.6929 143.522 16.6343C143.463 16.5756 143.43 16.4962 143.43 16.4133V14.3227C143.43 14.2398 143.463 14.1603 143.522 14.1017C143.58 14.0431 143.66 14.0102 143.743 14.0102H146.043V9.0625C146.043 8.97962 146.076 8.90013 146.134 8.84153C146.193 8.78292 146.272 8.75 146.355 8.75H148.961C149.044 8.75 149.124 8.78292 149.182 8.84153C149.241 8.90013 149.274 8.97962 149.274 9.0625V14.0102H152.88C152.963 14.0102 153.043 14.0431 153.101 14.1017C153.16 14.1603 153.193 14.2398 153.193 14.3227V16.4133C153.193 16.4962 153.16 16.5756 153.101 16.6343C153.043 16.6929 152.963 16.7258 152.88 16.7258H149.274V25.6641C149.274 27.5891 150.168 28.3109 151.44 28.3109C151.872 28.3056 152.302 28.2399 152.716 28.1156C152.759 28.1033 152.804 28.1003 152.847 28.1066C152.891 28.113 152.933 28.1286 152.971 28.1525C153.008 28.1764 153.04 28.2079 153.064 28.2451C153.089 28.2822 153.105 28.3241 153.111 28.368L153.429 30.4316Z" fill="#313131"/>
<path d="M155.874 22.432C155.874 17.1727 159.208 13.5289 164.089 13.5289C168.868 13.5289 171.996 16.8289 171.996 21.8133V22.7047C171.996 22.7876 171.963 22.867 171.904 22.9257C171.846 22.9843 171.766 23.0172 171.683 23.0172L159.001 23.0508C159.241 26.5914 161.098 28.5508 164.294 28.5508C166.712 28.5508 168.331 27.5941 168.939 25.8035C168.96 25.7424 169 25.6895 169.053 25.6521C169.106 25.6146 169.169 25.5945 169.234 25.5945H171.627C171.675 25.5945 171.723 25.6056 171.766 25.6269C171.809 25.6483 171.847 25.6793 171.876 25.7176C171.905 25.7559 171.925 25.8005 171.934 25.8477C171.944 25.895 171.942 25.9438 171.929 25.9902C170.991 29.3519 168.231 31.232 164.226 31.232C159.277 31.232 155.874 27.6562 155.874 22.432ZM159.071 20.8851H168.764C168.764 18.1008 166.943 16.2445 164.089 16.2445C161.271 16.2445 159.483 17.9297 159.071 20.8851Z" fill="#313131"/>
<path d="M174.849 28.8258C174.849 27.4852 175.982 26.3852 177.324 26.3852C178.63 26.3852 179.765 27.4852 179.765 28.8258C179.765 30.132 178.632 31.232 177.324 31.232C175.983 31.232 174.849 30.132 174.849 28.8258Z" fill="#313131"/>
</g>
<defs>
<clipPath id="clip0_23_125">
<rect width="179.764" height="40" fill="white"/>
</clipPath>
</defs>
</svg>
