<svg width="194" height="59" viewBox="0 0 194 59" fill="none" xmlns="http://www.w3.org/2000/svg">
<g clip-path="url(#clip0_6_148)">
<path d="M21.2422 21.1301C21.2679 21.1148 21.2949 21.0992 21.3203 21.0828C22.3695 20.4578 23.148 19.5844 23.5195 18.6125C23.7168 18.0977 23.7863 17.5848 23.7293 17.1281C23.6976 16.8525 23.6112 16.5859 23.475 16.3441C23.259 15.9711 22.9082 15.666 22.4636 15.4539C22.0191 15.2418 21.4793 15.123 20.8879 15.123C20.0621 15.123 19.1343 15.3539 18.2132 15.8852C17.8298 16.1048 17.4722 16.3669 17.1472 16.6664C15.8695 17.8492 15.4488 19.3672 15.8582 20.4113C15.8931 20.5008 15.9346 20.5875 15.9824 20.6707C16.7109 21.9379 19 22.4246 21.2422 21.1301Z" fill="#313131"/>
<path d="M19.8297 26.6457C21.137 26.3637 22.3916 25.8769 23.5469 25.2031C24.0599 24.9079 24.5525 24.5787 25.0215 24.2176C25.4758 23.8679 25.9051 23.4869 26.3062 23.0773C26.4708 22.9094 26.6291 22.7376 26.7812 22.5621C26.9333 22.3866 27.0791 22.2076 27.2187 22.025C27.4558 21.7152 27.6755 21.3926 27.8769 21.0586C28.0747 20.7307 28.2533 20.3916 28.4117 20.043C28.4508 19.9617 28.4847 19.8797 28.5195 19.7977C28.5543 19.7156 28.5875 19.6324 28.6195 19.5496C28.7688 19.164 28.8899 18.768 28.9816 18.3648C29.0691 17.9793 29.1261 17.5875 29.1519 17.193C29.1951 16.5913 29.1544 15.9866 29.0312 15.3961C28.9133 14.8326 28.7074 14.2912 28.4211 13.7918C28.188 13.3896 27.904 13.019 27.5762 12.6895C27.2371 12.3492 26.8597 12.0494 26.4515 11.7961C26.0221 11.5299 25.566 11.3094 25.0906 11.1383C24.5863 10.9565 24.0657 10.8236 23.5359 10.7414C23.2919 10.7039 23.0457 10.6755 22.7972 10.6563C22.5488 10.637 22.2987 10.6275 22.0469 10.6277C21.0336 10.6321 20.0257 10.7756 19.0515 11.0543C18.0205 11.3481 17.03 11.7691 16.1031 12.3078C15.2889 12.7768 14.5277 13.3324 13.8328 13.9648C13.1717 14.5649 12.5831 15.2402 12.0789 15.977C11.8654 16.2899 11.6698 16.6146 11.493 16.9496C11.3189 17.2788 11.1645 17.6179 11.0304 17.9652C10.9653 18.1332 10.9061 18.3014 10.8527 18.4699C10.7992 18.6383 10.7519 18.8063 10.7097 18.9746L10.6945 19.0379C10.6894 19.059 10.6847 19.0797 10.6801 19.1004C10.6754 19.1211 10.6699 19.1426 10.6652 19.1637C10.6605 19.1848 10.6562 19.2051 10.6519 19.2258C10.6426 19.2676 10.634 19.3094 10.6258 19.3512C10.6176 19.393 10.6097 19.4352 10.6023 19.477C10.5961 19.5109 10.5902 19.5453 10.5847 19.5793C10.5793 19.6133 10.5734 19.6477 10.5683 19.6816C10.5652 19.7008 10.5625 19.7207 10.5597 19.7391L10.5515 19.7965C10.5476 19.8266 10.5433 19.8563 10.5394 19.8859C10.5355 19.9156 10.532 19.9453 10.5289 19.9754C10.525 20.0113 10.5211 20.048 10.5172 20.0844C10.5133 20.1207 10.5105 20.157 10.5074 20.1934C10.4923 20.3707 10.484 20.5466 10.4824 20.7211C10.4808 20.8956 10.4857 21.0681 10.4969 21.2387C10.5031 21.3324 10.5113 21.425 10.5219 21.5172C10.5324 21.6094 10.5445 21.7004 10.559 21.7906C10.5637 21.8215 10.5683 21.8516 10.5738 21.8816C10.5793 21.9117 10.5844 21.9418 10.5898 21.9719C10.5974 22.0104 10.6052 22.0495 10.6133 22.0891C10.6211 22.1281 10.6297 22.1672 10.6387 22.2062C10.6476 22.2453 10.6578 22.2887 10.6683 22.3297C10.6789 22.3707 10.6898 22.4117 10.7015 22.4523C10.7133 22.493 10.723 22.5305 10.7347 22.5695C10.7352 22.5715 10.7359 22.5735 10.7367 22.5754C10.7484 22.6074 10.7597 22.6395 10.7719 22.6707H10.766C10.766 22.6758 10.7691 22.6813 10.7711 22.6863C10.7871 22.7359 10.8039 22.7855 10.8211 22.8348C10.8383 22.884 10.8566 22.9328 10.8754 22.9809C10.9249 23.1098 10.979 23.2359 11.0379 23.3594C11.0967 23.4828 11.16 23.6038 11.2277 23.7223C11.689 24.5203 12.3648 25.1973 13.1984 25.7176C14.032 26.2379 15.023 26.6008 16.114 26.7723C17.3121 26.9562 18.5707 26.9109 19.8297 26.6457ZM14.1066 21.7527C13.8213 21.2541 13.6408 20.7025 13.5762 20.1316C13.5037 19.4799 13.5567 18.8204 13.7324 18.1887C13.7837 17.9997 13.8444 17.8134 13.9144 17.6305C14.3402 16.516 15.1094 15.5027 16.125 14.6953C16.4433 14.4428 16.7799 14.2143 17.132 14.0117C18.6484 13.1359 20.3328 12.7898 21.8734 13.0352C23.4055 13.2793 24.6722 14.0898 25.3472 15.2617C25.4031 15.3578 25.4547 15.457 25.5035 15.5574C25.8941 16.3777 26.0047 17.3367 25.8375 18.3125C25.7741 18.6791 25.6741 19.0385 25.539 19.3852C25.2426 20.144 24.8096 20.842 24.2613 21.4445C23.8125 21.9415 23.3017 22.3787 22.7414 22.7453C22.6049 22.8352 22.465 22.9216 22.3215 23.0047C21.1242 23.6953 19.8215 24.0594 18.5676 24.0594C18.2368 24.0594 17.9067 24.0333 17.5801 23.9812C16.4219 23.7973 15.4148 23.2863 14.7015 22.5418C14.4719 22.3039 14.2721 22.039 14.1066 21.7527Z" fill="#313131"/>
<path d="M36.75 0.371094H4.25C3.25544 0.371094 2.30161 0.766182 1.59835 1.46944C0.895088 2.1727 0.5 3.12653 0.5 4.12109L0.5 36.6211C0.5 37.6157 0.895088 38.5695 1.59835 39.2727C2.30161 39.976 3.25544 40.3711 4.25 40.3711H36.75C37.7446 40.3711 38.6984 39.976 39.4016 39.2727C40.1049 38.5695 40.5 37.6157 40.5 36.6211V4.12109C40.5 3.12653 40.1049 2.1727 39.4016 1.46944C38.6984 0.766182 37.7446 0.371094 36.75 0.371094V0.371094ZM32.9965 23.6355C32.8547 24.7637 32.4676 25.868 31.8637 26.8941C31.2598 27.9203 30.4383 28.868 29.4285 29.682C28.2652 30.6195 26.9043 31.348 25.4176 31.841C22.3195 32.843 18.9844 32.843 15.8863 31.841C14.3988 31.3477 13.0391 30.6203 11.8742 29.682C10.8246 28.8359 9.97891 27.8461 9.36875 26.7727C8.75859 25.6992 8.22031 24.5266 8.17266 23.3691L8.01641 21.3469C8.00417 21.1513 7.99844 20.9542 7.99922 20.7555C7.99922 20.6659 8.00065 20.5762 8.00352 20.4863C8.00638 20.3965 8.01042 20.3066 8.01562 20.2168C8.04237 19.7862 8.09665 19.3577 8.17812 18.934C8.26221 18.4978 8.37336 18.0673 8.51094 17.6449C8.54219 17.5488 8.57474 17.453 8.60859 17.3574C8.64258 17.2613 8.67813 17.166 8.71484 17.0703C8.76693 16.9375 8.82083 16.8053 8.87656 16.6738C8.93229 16.5423 8.99141 16.4121 9.05391 16.2832C9.65401 15.0257 10.4506 13.8718 11.4137 12.8648C13.5606 10.6242 16.3301 9.07898 19.3645 8.42891C20.8984 8.1125 22.4406 8.06211 23.9172 8.29258C25.3812 8.52148 26.7195 9.02422 27.8539 9.75078C28.9883 10.4773 29.9195 11.4285 30.5695 12.5531C30.9283 13.1773 31.2002 13.8476 31.3777 14.5453C31.559 15.2603 31.6496 15.9952 31.6477 16.7328C31.6475 17.2356 31.6083 17.7376 31.5305 18.2344C31.4498 18.7486 31.3314 19.2562 31.1762 19.7531C31.14 19.8687 31.1017 19.9842 31.0613 20.0996C31.021 20.215 30.9785 20.3303 30.934 20.4457C30.8064 20.7762 30.6632 21.1017 30.5043 21.4223C30.3454 21.7428 30.1719 22.0576 29.9836 22.3664C29.9629 22.4008 29.9422 22.4352 29.9211 22.4695C29.9 22.5039 29.8793 22.5379 29.8574 22.5719C29.8355 22.6059 29.8086 22.65 29.7836 22.6891C29.7586 22.7281 29.7332 22.7672 29.7074 22.8063C29.7023 22.8145 29.6973 22.8227 29.6918 22.8309C29.6868 22.8391 29.6813 22.8471 29.6754 22.8547C29.6415 22.9068 29.6069 22.9578 29.5715 23.0078C29.5367 23.0586 29.5012 23.1094 29.4656 23.1598C29.4301 23.2102 29.3969 23.2559 29.3617 23.3039C29.3266 23.352 29.2914 23.3992 29.2559 23.4461C29.1715 23.5589 29.085 23.6703 28.9965 23.7805C28.9079 23.8906 28.8176 23.9997 28.7254 24.1078C28.1785 24.7469 27.5773 25.3374 26.9285 25.8727C26.2576 26.4259 25.5419 26.9224 24.7887 27.357C23.6731 28.004 22.4807 28.5082 21.2395 28.8578C20.0553 29.1921 18.8312 29.3637 17.6008 29.368C17.2883 29.368 16.9773 29.3562 16.668 29.3328C16.4656 29.3176 16.2648 29.2938 16.0645 29.2699C16.1527 29.3051 16.2406 29.3402 16.3301 29.373C16.4564 29.4194 16.584 29.4635 16.7129 29.5055C16.8496 29.5503 16.9872 29.5927 17.1258 29.6328C17.2643 29.6729 17.4046 29.7102 17.5465 29.7445C18.0469 29.8678 18.5543 29.9603 19.066 30.0215C19.5925 30.0843 20.1222 30.1158 20.6523 30.1156C21.9897 30.1212 23.3195 29.9154 24.5926 29.5059C25.8152 29.1062 26.9281 28.516 27.8738 27.7551C28.6022 27.1726 29.217 26.461 29.6875 25.6559C30.107 24.9156 30.3438 24.1773 30.3777 23.5352C30.3875 23.35 30.4375 23.2574 30.5109 23.2109C30.5844 23.1645 30.6824 23.1645 30.7883 23.1645H32.5852C32.6444 23.1641 32.703 23.1766 32.757 23.2011C32.8109 23.2255 32.8589 23.2614 32.8977 23.3063C32.9364 23.3511 32.9652 23.4036 32.9823 23.4603C32.9993 23.5171 33.0042 23.5768 32.9965 23.6355ZM35.2383 6.73828C33.1895 7.21562 32.4863 7.91875 32.0094 9.96719C31.927 10.3188 31.4234 10.3188 31.341 9.96719C30.8641 7.91875 30.1605 7.21562 28.1121 6.73828C27.7605 6.65625 27.7605 6.15234 28.1121 6.07031C30.1605 5.59297 30.8641 4.88984 31.341 2.84102C31.4234 2.48945 31.927 2.48945 32.0094 2.84102C32.4863 4.88984 33.1895 5.59297 35.2383 6.07031C35.5918 6.15234 35.5918 6.65586 35.2383 6.73828Z" fill="#313131"/>
<path d="M50.4648 22.8031C50.4648 17.5437 53.7992 13.9 58.6805 13.9C63.4586 13.9 66.5867 17.2 66.5867 22.1844V23.0758C66.5867 23.1587 66.5538 23.2381 66.4952 23.2967C66.4366 23.3554 66.3571 23.3883 66.2742 23.3883L53.5922 23.4219C53.8328 26.9625 55.6891 28.9219 58.8859 28.9219C61.3027 28.9219 62.9227 27.9652 63.5301 26.1746C63.5515 26.1136 63.5913 26.0607 63.6441 26.0233C63.6969 25.9858 63.7599 25.9657 63.8246 25.9656H66.2188C66.2669 25.9656 66.3144 25.9768 66.3575 25.9981C66.4006 26.0195 66.4382 26.0506 66.4674 26.0889C66.4965 26.1272 66.5164 26.1717 66.5256 26.2189C66.5347 26.2662 66.5327 26.3149 66.5199 26.3613C65.5824 29.723 62.8219 31.6031 58.8172 31.6031C53.868 31.6031 50.4648 28.0273 50.4648 22.8031ZM53.6617 21.2562H63.3555C63.3555 18.4719 61.5336 16.6156 58.6805 16.6156C55.8617 16.6156 54.0742 18.3008 53.6617 21.2562Z" fill="#313131"/>
<path d="M70.5391 31.3086V14.6937C70.5391 14.6109 70.572 14.5314 70.6306 14.4728C70.6892 14.4142 70.7687 14.3812 70.8516 14.3812H73.1875C73.2632 14.3812 73.3363 14.4087 73.3933 14.4586C73.4503 14.5084 73.4872 14.5773 73.4973 14.6523L73.8047 16.9594C74.8703 15.0344 77.0016 13.9 79.3734 13.9C83.8078 13.9 85.8359 16.6156 85.8359 20.9125V31.3086C85.8359 31.3915 85.803 31.471 85.7444 31.5296C85.6858 31.5882 85.6063 31.6211 85.5234 31.6211H82.9172C82.8343 31.6211 82.7548 31.5882 82.6962 31.5296C82.6376 31.471 82.6047 31.3915 82.6047 31.3086V21.6344C82.6047 18.2312 81.0234 16.8562 78.5484 16.8562C75.5234 16.8562 73.7703 19.0219 73.7703 22.2859V31.3086C73.7703 31.3915 73.7374 31.471 73.6788 31.5296C73.6202 31.5882 73.5407 31.6211 73.4578 31.6211H70.8516C70.7687 31.6211 70.6892 31.5882 70.6306 31.5296C70.572 31.471 70.5391 31.3915 70.5391 31.3086Z" fill="#313131"/>
<path d="M98.3145 13.9344C103.333 13.9344 107.046 17.5781 107.046 22.7687C107.046 27.9594 103.335 31.6031 98.3145 31.6031C93.2613 31.6031 89.5488 27.9594 89.5488 22.7687C89.5488 17.5781 93.2613 13.9344 98.3145 13.9344ZM98.3145 28.7156C101.546 28.7156 103.814 26.275 103.814 22.7687C103.814 19.2625 101.546 16.8219 98.3145 16.8219C95.0488 16.8219 92.8145 19.2625 92.8145 22.7687C92.8145 26.275 95.0488 28.7156 98.3145 28.7156Z" fill="#313131"/>
<path d="M108.609 14.3813H111.37C111.433 14.3813 111.494 14.4003 111.546 14.4357C111.598 14.4711 111.638 14.5213 111.661 14.5797L115.261 23.7656C115.847 25.3469 116.327 26.7563 116.602 27.7891C116.875 26.6891 117.427 25.2453 118.011 23.7656L121.68 14.5777C121.703 14.5199 121.743 14.4705 121.795 14.4357C121.847 14.4009 121.908 14.3823 121.97 14.3824H124.658C124.71 14.3824 124.76 14.3952 124.806 14.4195C124.851 14.4438 124.89 14.4789 124.918 14.5217C124.947 14.5645 124.964 14.6137 124.969 14.6649C124.974 14.7161 124.966 14.7678 124.947 14.8152L118.195 31.4281C118.172 31.4851 118.131 31.5337 118.08 31.5679C118.029 31.6021 117.968 31.6204 117.907 31.6203H115.129C115.067 31.6203 115.006 31.6018 114.954 31.567C114.903 31.5322 114.862 31.4827 114.839 31.425L108.319 14.8106C108.3 14.7631 108.292 14.7117 108.298 14.6609C108.303 14.61 108.321 14.5613 108.35 14.5189C108.378 14.4765 108.417 14.4418 108.462 14.4178C108.507 14.3938 108.557 14.3813 108.609 14.3813Z" fill="#313131"/>
<path d="M126.468 26.5156C126.468 23.4219 128.772 21.4969 132.724 21.1875L138.018 20.775V20.293C138.018 17.4742 136.333 16.4773 134.064 16.4773C131.479 16.4773 129.953 17.568 129.813 19.423C129.806 19.5012 129.77 19.5739 129.712 19.6268C129.654 19.6797 129.578 19.7089 129.5 19.7086H127.303C127.261 19.7086 127.219 19.7001 127.18 19.6833C127.141 19.6666 127.105 19.6421 127.076 19.6113C127.047 19.5806 127.024 19.5441 127.01 19.5043C126.995 19.4645 126.988 19.4221 126.991 19.3797C127.166 16.0594 130.007 13.8992 134.201 13.8992C138.36 13.8992 141.179 16.0992 141.179 20.6367V30.8789C141.179 30.9618 141.146 31.0413 141.087 31.0999C141.029 31.1585 140.949 31.1914 140.866 31.1914H138.704C138.628 31.1913 138.555 31.1635 138.498 31.1132C138.441 31.0628 138.404 30.9934 138.395 30.918L138.085 28.4754C137.226 30.4004 134.921 31.6035 132.207 31.6035C128.599 31.6031 126.468 29.575 126.468 26.5156ZM138.052 23.9375V23.0437L133.755 23.3875C130.904 23.6609 129.732 24.7625 129.732 26.4125C129.732 28.2 131.038 29.0937 133.135 29.0937C136.196 29.0937 138.052 27.1 138.052 23.9375Z" fill="#313131"/>
<path d="M153.929 30.8027C153.94 30.8742 153.926 30.9473 153.889 31.0096C153.853 31.0718 153.795 31.1194 153.727 31.1441C152.909 31.4287 152.049 31.5723 151.183 31.5687C148.227 31.5687 146.543 29.8844 146.543 26.4812V17.0969H144.243C144.16 17.0969 144.08 17.064 144.022 17.0053C143.963 16.9467 143.93 16.8673 143.93 16.7844V14.6938C143.93 14.6109 143.963 14.5314 144.022 14.4728C144.08 14.4142 144.16 14.3813 144.243 14.3813H146.543V9.43359C146.543 9.35071 146.575 9.27123 146.634 9.21262C146.693 9.15402 146.772 9.12109 146.855 9.12109H149.461C149.544 9.12109 149.624 9.15402 149.682 9.21262C149.741 9.27123 149.774 9.35071 149.774 9.43359V14.3813H153.38C153.463 14.3813 153.542 14.4142 153.601 14.4728C153.66 14.5314 153.693 14.6109 153.693 14.6938V16.7844C153.693 16.8673 153.66 16.9467 153.601 17.0053C153.542 17.064 153.463 17.0969 153.38 17.0969H149.774V26.0352C149.774 27.9602 150.668 28.682 151.939 28.682C152.372 28.6767 152.802 28.6109 153.216 28.4867C153.259 28.4744 153.303 28.4714 153.347 28.4777C153.391 28.4841 153.433 28.4997 153.471 28.5236C153.508 28.5475 153.54 28.579 153.564 28.6162C153.588 28.6533 153.604 28.6952 153.611 28.7391L153.929 30.8027Z" fill="#313131"/>
<path d="M156.374 22.8031C156.374 17.5437 159.708 13.9 164.589 13.9C169.368 13.9 172.496 17.2 172.496 22.1844V23.0758C172.496 23.1587 172.463 23.2381 172.404 23.2967C172.346 23.3554 172.266 23.3883 172.183 23.3883L159.501 23.4219C159.741 26.9625 161.598 28.9219 164.795 28.9219C167.212 28.9219 168.831 27.9652 169.439 26.1746C169.46 26.1135 169.5 26.0606 169.553 26.0231C169.606 25.9857 169.669 25.9656 169.734 25.9656H172.127C172.176 25.9656 172.223 25.9766 172.266 25.998C172.309 26.0194 172.347 26.0504 172.376 26.0887C172.405 26.127 172.425 26.1715 172.435 26.2188C172.444 26.2661 172.442 26.3149 172.429 26.3613C171.491 29.723 168.731 31.6031 164.726 31.6031C159.777 31.6031 156.374 28.0273 156.374 22.8031ZM159.571 21.2562H169.264C169.264 18.4719 167.443 16.6156 164.589 16.6156C161.771 16.6156 159.983 18.3008 159.571 21.2562Z" fill="#313131"/>
<path d="M175.349 29.1969C175.349 27.8563 176.482 26.7563 177.824 26.7563C179.13 26.7563 180.264 27.8563 180.264 29.1969C180.264 30.5031 179.132 31.6031 177.824 31.6031C176.483 31.6031 175.349 30.5031 175.349 29.1969Z" fill="#313131"/>
</g>
<path d="M4.34 55.4811C5.97 55.4811 7.26 54.5211 7.57 53.0811H6.53C6.26 53.9711 5.42 54.5411 4.36 54.5411C2.9 54.5411 1.94 53.4411 1.94 51.7511C1.94 50.0611 2.9 48.9611 4.36 48.9611C5.41 48.9611 6.22 49.5311 6.49 50.4711H7.54C7.27 48.9911 6.02 48.0211 4.39 48.0211C2.32 48.0211 0.91 49.5311 0.91 51.7611C0.91 54.0011 2.28 55.4811 4.34 55.4811ZM11.4116 50.4411C11.2216 50.4011 11.0816 50.3811 10.9116 50.3811C10.2416 50.3811 9.75164 50.7211 9.55164 51.2311L9.49164 50.4911H8.61164V55.3711H9.55164V52.7811C9.55164 51.8411 10.1016 51.3011 10.9916 51.3011H11.4116V50.4411ZM14.2275 55.4911C15.4375 55.4911 16.2575 54.9011 16.4975 53.8511H15.6175C15.4575 54.4111 14.9775 54.7111 14.2475 54.7111C13.3175 54.7111 12.7775 54.1411 12.7075 53.1111L16.4875 53.1011V52.7511C16.4875 51.3011 15.5775 50.3411 14.1875 50.3411C12.7675 50.3411 11.7975 51.4011 11.7975 52.9311C11.7975 54.4511 12.7875 55.4911 14.2275 55.4911ZM14.1875 51.1311C15.0175 51.1311 15.5475 51.6711 15.5475 52.4811H12.7275C12.8475 51.6211 13.3675 51.1311 14.1875 51.1311ZM18.9186 55.4911C19.7086 55.4911 20.3786 55.1411 20.6286 54.5811L20.7286 55.3711H21.5286V52.3011C21.5286 50.9811 20.7086 50.3411 19.4986 50.3411C18.2386 50.3411 17.3986 51.0111 17.3986 52.0311H18.2186C18.2186 51.4411 18.6686 51.0911 19.4586 51.0911C20.1186 51.0911 20.6086 51.3811 20.6086 52.2011V52.3411L19.0686 52.4611C17.9186 52.5511 17.2486 53.1111 17.2486 54.0111C17.2486 54.9011 17.8686 55.4911 18.9186 55.4911ZM19.1886 54.7611C18.5786 54.7611 18.1986 54.5011 18.1986 53.9811C18.1986 53.5011 18.5386 53.1811 19.3686 53.1011L20.6186 53.0011V53.2611C20.6186 54.1811 20.0786 54.7611 19.1886 54.7611ZM24.1323 55.3711V51.2711H25.0923V50.4811H24.1323V48.9511H23.1923V50.4811H22.2323V51.2711H23.1923V55.3711H24.1323ZM26.3959 49.3211C26.7359 49.3211 27.0159 49.0411 27.0159 48.7011C27.0159 48.3511 26.7359 48.0811 26.3959 48.0811C26.0559 48.0811 25.7759 48.3511 25.7759 48.7011C25.7759 49.0411 26.0559 49.3211 26.3959 49.3211ZM25.9359 55.3711H26.8759V50.4811H25.9359V55.3711ZM29.6105 55.3711H30.5405L32.5805 50.4811H31.6005L30.5105 53.2111C30.3405 53.6411 30.1805 54.0611 30.1005 54.3811C30.0205 54.0811 29.8805 53.6711 29.7105 53.2111L28.6405 50.4811H27.6405L29.6105 55.3711ZM35.2138 55.4911C36.4238 55.4911 37.2438 54.9011 37.4838 53.8511H36.6038C36.4438 54.4111 35.9638 54.7111 35.2338 54.7111C34.3038 54.7111 33.7638 54.1411 33.6938 53.1111L37.4738 53.1011V52.7511C37.4738 51.3011 36.5638 50.3411 35.1738 50.3411C33.7538 50.3411 32.7838 51.4011 32.7838 52.9311C32.7838 54.4511 33.7738 55.4911 35.2138 55.4911ZM35.1738 51.1311C36.0038 51.1311 36.5338 51.6711 36.5338 52.4811H33.7138C33.8338 51.6211 34.3538 51.1311 35.1738 51.1311ZM43.8081 55.3711C45.9481 55.3711 47.3881 53.9111 47.3881 51.7611C47.3881 49.6011 45.9281 48.1411 43.7681 48.1411H41.4181V55.3711H43.8081ZM43.6981 49.0411C45.3481 49.0411 46.3681 50.0811 46.3681 51.7611C46.3681 53.4211 45.3481 54.4611 43.7381 54.4611H42.3981V49.0411H43.6981ZM50.5849 55.4911C51.7949 55.4911 52.6149 54.9011 52.8549 53.8511H51.9749C51.8149 54.4111 51.3349 54.7111 50.6049 54.7111C49.6749 54.7111 49.1349 54.1411 49.0649 53.1111L52.8449 53.1011V52.7511C52.8449 51.3011 51.9349 50.3411 50.5449 50.3411C49.1249 50.3411 48.1549 51.4011 48.1549 52.9311C48.1549 54.4511 49.1449 55.4911 50.5849 55.4911ZM50.5449 51.1311C51.3749 51.1311 51.9049 51.6711 51.9049 52.4811H49.0849C49.2049 51.6211 49.7249 51.1311 50.5449 51.1311ZM53.4948 53.9511C53.4948 54.8811 54.2248 55.4911 55.3748 55.4911C56.5348 55.4911 57.3348 54.9011 57.3348 53.9711C57.3348 53.2411 56.9248 52.8611 56.0948 52.6611L55.2348 52.4511C54.7548 52.3311 54.5148 52.1111 54.5148 51.7811C54.5148 51.3311 54.8448 51.0711 55.4348 51.0711C56.0048 51.0711 56.3348 51.3811 56.3548 51.8711H57.2548C57.2348 50.9411 56.5348 50.3411 55.4648 50.3411C54.3848 50.3411 53.6248 50.9111 53.6248 51.8111C53.6248 52.5311 54.0348 52.9611 54.9048 53.1711L55.7648 53.3711C56.2748 53.5011 56.4348 53.7011 56.4348 54.0311C56.4348 54.4811 56.0548 54.7511 55.3948 54.7511C54.7748 54.7511 54.3948 54.4511 54.3948 53.9511H53.4948ZM58.8373 49.3211C59.1773 49.3211 59.4573 49.0411 59.4573 48.7011C59.4573 48.3511 59.1773 48.0811 58.8373 48.0811C58.4973 48.0811 58.2173 48.3511 58.2173 48.7011C58.2173 49.0411 58.4973 49.3211 58.8373 49.3211ZM58.3773 55.3711H59.3173V50.4811H58.3773V55.3711ZM60.372 52.8011C60.372 54.1711 61.252 55.2411 62.642 55.2411C63.412 55.2411 64.052 54.9011 64.372 54.3311V55.3111C64.372 56.2411 63.772 56.8411 62.852 56.8411C62.032 56.8411 61.492 56.4211 61.372 55.7011H60.432C60.612 56.9411 61.522 57.6911 62.852 57.6911C64.352 57.6911 65.302 56.7111 65.302 55.1711V50.4811H64.462L64.392 51.3111C64.082 50.7011 63.472 50.3411 62.682 50.3411C61.262 50.3411 60.372 51.4211 60.372 52.8011ZM61.312 52.7811C61.312 51.8811 61.872 51.1611 62.812 51.1611C63.772 51.1611 64.332 51.8411 64.332 52.7811C64.332 53.7411 63.752 54.4211 62.802 54.4211C61.882 54.4211 61.312 53.7011 61.312 52.7811ZM67.5985 55.3711V52.7811C67.5985 51.8311 68.1085 51.2011 68.9885 51.2011C69.7085 51.2011 70.1685 51.6011 70.1685 52.5911V55.3711H71.1085V52.3811C71.1085 51.1311 70.5185 50.3411 69.2285 50.3411C68.5385 50.3411 67.9185 50.6711 67.6085 51.2311L67.5085 50.4811H66.6585V55.3711H67.5985ZM76.5748 55.4911C77.3648 55.4911 78.0348 55.1411 78.2848 54.5811L78.3848 55.3711H79.1848V52.3011C79.1848 50.9811 78.3648 50.3411 77.1548 50.3411C75.8948 50.3411 75.0548 51.0111 75.0548 52.0311H75.8748C75.8748 51.4411 76.3248 51.0911 77.1148 51.0911C77.7748 51.0911 78.2648 51.3811 78.2648 52.2011V52.3411L76.7248 52.4611C75.5748 52.5511 74.9048 53.1111 74.9048 54.0111C74.9048 54.9011 75.5248 55.4911 76.5748 55.4911ZM76.8448 54.7611C76.2348 54.7611 75.8548 54.5011 75.8548 53.9811C75.8548 53.5011 76.1948 53.1811 77.0248 53.1011L78.2748 53.0011V53.2611C78.2748 54.1811 77.7348 54.7611 76.8448 54.7611ZM81.4266 55.3711V52.7811C81.4266 51.8311 81.9366 51.2011 82.8166 51.2011C83.5366 51.2011 83.9966 51.6011 83.9966 52.5911V55.3711H84.9366V52.3811C84.9366 51.1311 84.3466 50.3411 83.0566 50.3411C82.3666 50.3411 81.7466 50.6711 81.4366 51.2311L81.3366 50.4811H80.4866V55.3711H81.4266ZM88.1986 55.4911C88.9786 55.4911 89.6386 55.1511 89.9586 54.4811L90.0386 55.3711H90.8786V48.0111H89.9486V51.2711C89.6186 50.6711 88.9886 50.3411 88.2386 50.3411C86.7886 50.3411 85.9186 51.4411 85.9186 52.9411C85.9186 54.4311 86.7786 55.4911 88.1986 55.4911ZM88.3886 54.6411C87.4286 54.6411 86.8686 53.9211 86.8686 52.9111C86.8686 51.9111 87.4286 51.1911 88.3886 51.1911C89.3486 51.1911 89.9386 51.9111 89.9386 52.9111C89.9386 53.9311 89.3486 54.6411 88.3886 54.6411ZM97.5191 55.3711C99.6591 55.3711 101.099 53.9111 101.099 51.7611C101.099 49.6011 99.6391 48.1411 97.4791 48.1411H95.1291V55.3711H97.5191ZM97.4091 49.0411C99.0591 49.0411 100.079 50.0811 100.079 51.7611C100.079 53.4211 99.0591 54.4611 97.4491 54.4611H96.1091V49.0411H97.4091ZM104.296 55.4911C105.506 55.4911 106.326 54.9011 106.566 53.8511H105.686C105.526 54.4111 105.046 54.7111 104.316 54.7111C103.386 54.7111 102.846 54.1411 102.776 53.1111L106.556 53.1011V52.7511C106.556 51.3011 105.646 50.3411 104.256 50.3411C102.836 50.3411 101.866 51.4011 101.866 52.9311C101.866 54.4511 102.856 55.4911 104.296 55.4911ZM104.256 51.1311C105.086 51.1311 105.616 51.6711 105.616 52.4811H102.796C102.916 51.6211 103.436 51.1311 104.256 51.1311ZM108.81 55.3711H109.74L111.78 50.4811H110.8L109.71 53.2111C109.54 53.6411 109.38 54.0611 109.3 54.3811C109.22 54.0811 109.08 53.6711 108.91 53.2111L107.84 50.4811H106.84L108.81 55.3711ZM114.413 55.4911C115.623 55.4911 116.443 54.9011 116.683 53.8511H115.803C115.643 54.4111 115.163 54.7111 114.433 54.7111C113.503 54.7111 112.963 54.1411 112.893 53.1111L116.673 53.1011V52.7511C116.673 51.3011 115.763 50.3411 114.373 50.3411C112.953 50.3411 111.983 51.4011 111.983 52.9311C111.983 54.4511 112.973 55.4911 114.413 55.4911ZM114.373 51.1311C115.203 51.1311 115.733 51.6711 115.733 52.4811H112.913C113.033 51.6211 113.553 51.1311 114.373 51.1311ZM118.683 55.3711V48.0111H117.743V55.3711H118.683ZM119.747 52.9211C119.747 54.4311 120.827 55.4911 122.297 55.4911C123.757 55.4911 124.837 54.4311 124.837 52.9211C124.837 51.4111 123.757 50.3511 122.297 50.3511C120.827 50.3511 119.747 51.4111 119.747 52.9211ZM120.697 52.9211C120.697 51.9011 121.347 51.1911 122.297 51.1911C123.237 51.1911 123.897 51.9011 123.897 52.9211C123.897 53.9411 123.237 54.6511 122.297 54.6511C121.347 54.6511 120.697 53.9411 120.697 52.9211ZM125.877 57.5611H126.817V54.5711C127.137 55.1711 127.787 55.5011 128.567 55.5011C130.017 55.5011 130.837 54.3811 130.837 52.8911C130.837 51.3911 129.967 50.3411 128.567 50.3411C127.787 50.3411 127.127 50.6911 126.797 51.3611L126.727 50.4811H125.877V57.5611ZM126.827 52.9311C126.827 51.9111 127.407 51.2011 128.367 51.2011C129.327 51.2011 129.897 51.9211 129.897 52.9311C129.897 53.9311 129.327 54.6511 128.367 54.6511C127.407 54.6511 126.827 53.9311 126.827 52.9311ZM132.813 55.3711V52.4711C132.813 51.6911 133.283 51.2011 133.993 51.2011C134.653 51.2011 135.073 51.6211 135.073 52.3911V55.3711H136.003V52.4711C136.003 51.6911 136.473 51.1911 137.183 51.1911C137.843 51.1911 138.273 51.6311 138.273 52.4011V55.3711H139.193V52.1711C139.193 51.0411 138.513 50.3411 137.393 50.3411C136.633 50.3411 136.043 50.7211 135.813 51.3311C135.563 50.7211 135.023 50.3411 134.263 50.3411C133.573 50.3411 133.053 50.6611 132.803 51.1211L132.713 50.4811H131.873V55.3711H132.813ZM142.606 55.4911C143.816 55.4911 144.636 54.9011 144.876 53.8511H143.996C143.836 54.4111 143.356 54.7111 142.626 54.7111C141.696 54.7111 141.156 54.1411 141.086 53.1111L144.866 53.1011V52.7511C144.866 51.3011 143.956 50.3411 142.566 50.3411C141.146 50.3411 140.176 51.4011 140.176 52.9311C140.176 54.4511 141.166 55.4911 142.606 55.4911ZM142.566 51.1311C143.396 51.1311 143.926 51.6711 143.926 52.4811H141.106C141.226 51.6211 141.746 51.1311 142.566 51.1311ZM146.856 55.3711V52.7811C146.856 51.8311 147.366 51.2011 148.246 51.2011C148.966 51.2011 149.426 51.6011 149.426 52.5911V55.3711H150.366V52.3811C150.366 51.1311 149.776 50.3411 148.486 50.3411C147.796 50.3411 147.176 50.6711 146.866 51.2311L146.766 50.4811H145.916V55.3711H146.856ZM153.048 55.3711V51.2711H154.008V50.4811H153.048V48.9511H152.108V50.4811H151.148V51.2711H152.108V55.3711H153.048ZM158.046 55.3711L158.686 53.5711H161.726L162.376 55.3711H163.406L160.756 48.1411H159.666L157.026 55.3711H158.046ZM160.086 49.7011C160.136 49.5511 160.186 49.3811 160.206 49.2811C160.226 49.3911 160.276 49.5611 160.326 49.7011L161.436 52.7211H158.986L160.086 49.7011ZM163.809 52.8011C163.809 54.1711 164.689 55.2411 166.079 55.2411C166.849 55.2411 167.489 54.9011 167.809 54.3311V55.3111C167.809 56.2411 167.209 56.8411 166.289 56.8411C165.469 56.8411 164.929 56.4211 164.809 55.7011H163.869C164.049 56.9411 164.959 57.6911 166.289 57.6911C167.789 57.6911 168.739 56.7111 168.739 55.1711V50.4811H167.899L167.829 51.3111C167.519 50.7011 166.909 50.3411 166.119 50.3411C164.699 50.3411 163.809 51.4211 163.809 52.8011ZM164.749 52.7811C164.749 51.8811 165.309 51.1611 166.249 51.1611C167.209 51.1611 167.769 51.8411 167.769 52.7811C167.769 53.7411 167.189 54.4211 166.239 54.4211C165.319 54.4211 164.749 53.7011 164.749 52.7811ZM172.206 55.4911C173.416 55.4911 174.236 54.9011 174.476 53.8511H173.596C173.436 54.4111 172.956 54.7111 172.226 54.7111C171.296 54.7111 170.756 54.1411 170.686 53.1111L174.466 53.1011V52.7511C174.466 51.3011 173.556 50.3411 172.166 50.3411C170.746 50.3411 169.776 51.4011 169.776 52.9311C169.776 54.4511 170.766 55.4911 172.206 55.4911ZM172.166 51.1311C172.996 51.1311 173.526 51.6711 173.526 52.4811H170.706C170.826 51.6211 171.346 51.1311 172.166 51.1311ZM176.456 55.3711V52.7811C176.456 51.8311 176.966 51.2011 177.846 51.2011C178.566 51.2011 179.026 51.6011 179.026 52.5911V55.3711H179.966V52.3811C179.966 51.1311 179.376 50.3411 178.086 50.3411C177.396 50.3411 176.776 50.6711 176.466 51.2311L176.366 50.4811H175.516V55.3711H176.456ZM180.948 52.9311C180.948 54.4711 181.898 55.4911 183.338 55.4911C184.518 55.4911 185.428 54.7811 185.618 53.7211H184.678C184.508 54.3011 184.008 54.6511 183.338 54.6511C182.448 54.6511 181.878 53.9711 181.878 52.9211C181.878 51.8611 182.488 51.1811 183.378 51.1811C184.008 51.1811 184.508 51.5111 184.668 52.1311H185.608C185.438 51.0411 184.578 50.3411 183.348 50.3411C181.918 50.3411 180.948 51.4011 180.948 52.9311ZM186.042 57.5611C186.292 57.6211 186.552 57.6611 186.862 57.6611C187.612 57.6611 188.102 57.3111 188.432 56.4711L190.742 50.4811H189.772L188.322 54.4211L186.902 50.4811H185.912L187.882 55.6311L187.712 56.1011C187.482 56.7211 187.122 56.7911 186.672 56.7911H186.042V57.5611ZM191.362 55.4911C191.742 55.4911 192.072 55.1711 192.072 54.7911C192.072 54.4011 191.742 54.0811 191.362 54.0811C190.972 54.0811 190.642 54.4011 190.642 54.7911C190.642 55.1711 190.972 55.4911 191.362 55.4911Z" fill="#767676"/>
<defs>
<clipPath id="clip0_6_148">
<rect width="179.764" height="40" fill="white" transform="translate(0.5 0.371094)"/>
</clipPath>
</defs>
</svg>
