<svg width="25" height="24" viewBox="0 0 25 24" fill="none" xmlns="http://www.w3.org/2000/svg">
<path d="M12.5 3C8.36621 3 5 6.36621 5 10.5V13.5C5 17.6338 8.36621 21 12.5 21C16.6338 21 20 17.6338 20 13.5V10.5C20 6.36621 16.6338 3 12.5 3ZM11.75 4.54688V9.75H6.54688C6.88672 7.03125 9.03125 4.88672 11.75 4.54688ZM13.25 4.54688C15.9688 4.88672 18.1133 7.03125 18.4531 9.75H13.25V4.54688ZM6.5 11.25H18.5V13.5C18.5 16.8223 15.8223 19.5 12.5 19.5C9.17773 19.5 6.5 16.8223 6.5 13.5V11.25Z" fill="white"/>
</svg>
