<svg width="21" height="21" viewBox="0 0 21 21" fill="none" xmlns="http://www.w3.org/2000/svg">
<path d="M10.5 0.725098C5.12402 0.725098 0.75 5.09912 0.75 10.4751C0.75 15.8511 5.12402 20.2251 10.5 20.2251C15.876 20.2251 20.25 15.8511 20.25 10.4751C20.25 5.09912 15.876 0.725098 10.5 0.725098ZM10.5 2.2251C15.0645 2.2251 18.75 5.91065 18.75 10.4751C18.75 15.0396 15.0645 18.7251 10.5 18.7251C5.93555 18.7251 2.25 15.0396 2.25 10.4751C2.25 5.91065 5.93555 2.2251 10.5 2.2251ZM9.75 5.9751V9.7251H6V11.2251H9.75V14.9751H11.25V11.2251H15V9.7251H11.25V5.9751H9.75Z" fill="url(#paint0_linear_605_138)"/>
<defs>
<linearGradient id="paint0_linear_605_138" x1="1.30067" y1="10.4751" x2="19.0898" y2="10.4751" gradientUnits="userSpaceOnUse">
<stop stop-color="#92EBFF"/>
<stop offset="0.513542" stop-color="#8B98FF"/>
<stop offset="1" stop-color="#67FE9B"/>
</linearGradient>
</defs>
</svg>
