<svg width="64" height="64" viewBox="0 0 64 64" fill="none" xmlns="http://www.w3.org/2000/svg">
<path d="M22 8C18.7109 8 16 10.7109 16 14V50C16 53.2891 18.7109 56 22 56H42C45.2891 56 48 53.2891 48 50V14C48 10.7109 45.2891 8 42 8H22ZM22 12H42C43.1094 12 44 12.8906 44 14V50C44 51.1094 43.1094 52 42 52H22C20.8906 52 20 51.1094 20 50V14C20 12.8906 20.8906 12 22 12ZM32 46C30.8984 46 30 46.8984 30 48C30 49.1016 30.8984 50 32 50C33.1016 50 34 49.1016 34 48C34 46.8984 33.1016 46 32 46Z" fill="white"/>
</svg>
