<svg width="42" height="42" viewBox="0 0 42 42" fill="none" xmlns="http://www.w3.org/2000/svg">
<rect x="1" y="1" width="40" height="40" rx="20" fill="#F9F9F9"/>
<path d="M19.5 14.625C19.2023 14.3273 18.7196 14.3273 18.4219 14.625L12.5859 20.4609C12.2975 20.7625 12.2975 21.2375 12.5859 21.5391L18.4219 27.375C18.7196 27.6727 19.2023 27.6727 19.5 27.375C19.7977 27.0773 19.7977 26.5946 19.5 26.2969L14.9531 21.75H29.25C29.6642 21.75 30 21.4142 30 21C30 20.5858 29.6642 20.25 29.25 20.25H14.9531L19.5 15.7031C19.7977 15.4054 19.7977 14.9227 19.5 14.625Z" fill="#767676"/>
<rect x="1" y="1" width="40" height="40" rx="20" stroke="url(#paint0_linear_1185_604)"/>
<defs>
<linearGradient id="paint0_linear_1185_604" x1="2.12959" y1="21" x2="38.6201" y2="21" gradientUnits="userSpaceOnUse">
<stop stop-color="#92EBFF"/>
<stop offset="0.513542" stop-color="#8B98FF"/>
<stop offset="1" stop-color="#67FE9B"/>
</linearGradient>
</defs>
</svg>
