<svg width="64" height="64" viewBox="0 0 64 64" fill="none" xmlns="http://www.w3.org/2000/svg">
<path d="M52.1407 7.99214C51.4688 8.02339 50.836 8.2187 50.2735 8.43745H50.2657C49.6953 8.66402 46.9844 9.80464 42.8672 11.5312C38.75 13.2656 33.4063 15.5156 28.1016 17.75C17.5078 22.2109 7.09378 26.6015 7.09378 26.6015L7.21878 26.5546C7.21878 26.5546 6.50003 26.789 5.75003 27.3046C5.36722 27.5546 4.94534 27.8984 4.57816 28.4375C4.21097 28.9765 3.91409 29.8046 4.02347 30.6562C4.20316 32.1015 5.14066 32.9687 5.81253 33.4453C6.49222 33.9296 7.14066 34.1562 7.14066 34.1562H7.15628L16.9219 37.4453C17.3594 38.8515 19.8985 47.1953 20.5078 49.1171C20.8672 50.2656 21.2188 50.9843 21.6563 51.5312C21.8672 51.8125 22.1172 52.0468 22.4141 52.2343C22.5313 52.3046 22.6563 52.3593 22.7813 52.4062C22.8203 52.4296 22.8594 52.4375 22.9063 52.4453L22.8047 52.4218C22.836 52.4296 22.8594 52.4531 22.8828 52.4609C22.961 52.4843 23.0157 52.4921 23.1172 52.5078C24.6641 52.9765 25.9063 52.0156 25.9063 52.0156L25.9766 51.9609L31.7422 46.7109L41.4063 54.125L41.625 54.2187C43.6407 55.1015 45.6797 54.6093 46.7578 53.7421C47.8438 52.8671 48.2657 51.75 48.2657 51.75L48.336 51.5703L55.8047 13.3125C56.0157 12.3671 56.0703 11.4843 55.836 10.625C55.6016 9.76558 55 8.96089 54.2735 8.5312C53.5391 8.0937 52.8125 7.96089 52.1407 7.99214ZM51.9375 12.0937C51.9297 12.2187 51.9532 12.2031 51.8985 12.4453V12.4687L44.5 50.3281C44.4688 50.3828 44.4141 50.5 44.2657 50.6171C44.1094 50.7421 43.9844 50.8203 43.336 50.5625L31.5157 41.5L24.375 48.0078L25.875 38.4296C25.875 38.4296 44.3907 21.1718 45.1875 20.4296C45.9844 19.6875 45.7188 19.5312 45.7188 19.5312C45.7735 18.625 44.5157 19.2656 44.5157 19.2656L20.1641 34.3515L20.1563 34.3125L8.48441 30.3828V30.375C8.47659 30.375 8.46097 30.3671 8.45316 30.3671C8.46097 30.3671 8.51566 30.3437 8.51566 30.3437L8.57816 30.3125L8.64066 30.289C8.64066 30.289 19.0625 25.8984 29.6563 21.4375C34.961 19.2031 40.3047 16.9531 44.4141 15.2187C48.5235 13.4921 51.5625 12.2265 51.7344 12.1562C51.8985 12.0937 51.8203 12.0937 51.9375 12.0937Z" fill="#313131"/>
</svg>
