<svg width="100" height="101" viewBox="0 0 100 101" fill="none" xmlns="http://www.w3.org/2000/svg">
<path d="M29.863 22.6113L20 41.4273M29.863 22.6113L39.9644 41.4273M29.863 22.6113H50M20 41.4273L49.9424 78.6113M20 41.4273H39.9644M80 41.4273L70.137 22.6113M80 41.4273L49.9424 78.6113M80 41.4273H59.9205M70.137 22.6113L59.9205 41.4273M70.137 22.6113H50M49.9424 78.6113L39.9644 41.4273M49.9424 78.6113L59.9205 41.4273M39.9644 41.4273H59.9205M39.9644 41.4273L50 22.6113M59.9205 41.4273L50 22.6113" stroke="url(#paint0_linear_669_344)" stroke-width="2"/>
<defs>
<linearGradient id="paint0_linear_669_344" x1="21.6944" y1="50.6113" x2="76.4302" y2="50.6113" gradientUnits="userSpaceOnUse">
<stop stop-color="#92EBFF"/>
<stop offset="0.513542" stop-color="#8B98FF"/>
<stop offset="1" stop-color="#67FE9B"/>
</linearGradient>
</defs>
</svg>
