<svg width="64" height="64" viewBox="0 0 64 64" fill="none" xmlns="http://www.w3.org/2000/svg">
<path d="M10 12V39.125L5.4375 43.75C4.53125 44.6562 4 45.9062 4 47.1875C4 49.8281 6.17188 52 8.8125 52H55.1875C57.8281 52 60 49.8281 60 47.1875C60 45.9062 59.4688 44.6562 58.5625 43.75L54 39.125V12H10ZM14 16H50V38H14V16ZM12.875 42H51.125L55.75 46.5625C55.9062 46.7188 56 46.9688 56 47.1875C56 47.6719 55.6719 48 55.1875 48H8.8125C8.32813 48 8 47.6719 8 47.1875C8 46.9688 8.09375 46.7188 8.25 46.5625L12.875 42Z" fill="white"/>
</svg>
