<svg width="33" height="33" viewBox="0 0 33 33" fill="none" xmlns="http://www.w3.org/2000/svg">
<path d="M25.5 4.50635C24.7344 4.50635 23.9844 4.80322 23.4062 5.38135L13.5 15.2563L13.2812 15.4751L13.2188 15.7876L12.5312 19.2876L12.2188 20.7563L13.6875 20.4438L17.1875 19.7563L17.5 19.6938L17.7188 19.4751L27.5938 9.56885C28.7461 8.4165 28.7461 6.53369 27.5938 5.38135C27.0156 4.80322 26.2656 4.50635 25.5 4.50635ZM25.5 6.44385C25.7344 6.44385 25.9648 6.56494 26.1875 6.7876C26.6328 7.23291 26.6328 7.71729 26.1875 8.1626L16.5 17.8501L14.7812 18.1938L15.125 16.4751L24.8125 6.7876C25.0352 6.56494 25.2656 6.44385 25.5 6.44385ZM4.5 8.4751V28.4751H24.5V15.2876L22.5 17.2876V26.4751H6.5V10.4751H15.6875L17.6875 8.4751H4.5Z" fill="white"/>
</svg>
